<svg width="161" height="30" viewBox="0 0 161 30" fill="none" xmlns="http://www.w3.org/2000/svg">
<path d="M25.8892 10.7433C25.8892 10.9844 25.8429 11.233 25.7505 11.4892C25.6734 11.7454 25.5732 11.9789 25.45 12.1899C25.2496 12.22 25.0647 12.2878 24.8952 12.3933C24.7411 12.4987 24.6178 12.5665 24.5253 12.5967C24.325 12.6268 24.0862 12.6419 23.8088 12.6419C23.5468 12.6268 23.3079 12.6268 23.0922 12.6419C22.6761 12.672 22.26 12.7172 21.844 12.7775C21.4433 12.8378 21.0426 12.9131 20.642 13.0035C20.6112 13.0035 20.5803 13.011 20.5495 13.0261C20.5187 13.0261 20.5033 13.0412 20.5033 13.0713C20.5033 13.1015 20.511 13.1316 20.5264 13.1617C20.5418 13.1919 20.5495 13.222 20.5495 13.2521C20.5495 13.2973 20.5033 13.3199 20.4108 13.3199C20.2413 13.3199 20.1257 13.2672 20.0641 13.1617C19.571 13.2823 19.0778 13.4103 18.5847 13.546C18.0916 13.6665 17.5985 13.787 17.1053 13.9076C16.8588 13.9528 16.6122 13.998 16.3656 14.0432C16.1345 14.0884 15.8956 14.1487 15.6491 14.224C15.5258 14.2541 15.4025 14.3069 15.2792 14.3822L14.9094 14.6082C14.8323 14.5932 14.763 14.5856 14.7013 14.5856C14.6397 14.5706 14.5781 14.563 14.5164 14.563C14.2544 14.563 13.9771 14.6158 13.6843 14.7212C13.3915 14.8117 13.1372 14.9397 12.9215 15.1055H12.7597C12.6056 15.1055 12.4977 15.0829 12.436 15.0377C12.2973 15.0226 12.2126 15.0678 12.1818 15.1733C12.1509 15.2637 12.097 15.3466 12.02 15.4219C11.496 15.4671 10.9798 15.5575 10.4712 15.6931C9.9627 15.8287 9.46187 15.9794 8.96874 16.1452C8.47561 16.2958 7.97478 16.454 7.46625 16.6198C6.97312 16.7705 6.47229 16.891 5.96375 16.9814C5.90211 17.2828 5.87129 17.6293 5.87129 18.0211C5.87129 18.3224 5.8944 18.669 5.94064 19.0608C6.00228 19.4525 6.12556 19.784 6.31048 20.0552V20.1005C6.31048 20.1758 6.27966 20.2285 6.21802 20.2587C6.15638 20.2888 6.12556 20.3415 6.12556 20.4169C6.12556 20.8086 6.16408 21.1778 6.24113 21.5244C6.3336 21.8709 6.42606 22.2099 6.51852 22.5414C6.61098 22.8729 6.69574 23.2044 6.77279 23.5359C6.86525 23.8674 6.91148 24.2064 6.91148 24.553C6.91148 24.6434 6.90377 24.7263 6.88836 24.8016C6.88836 24.892 6.88066 24.9824 6.86525 25.0728C6.91148 25.2084 6.98853 25.3214 7.0964 25.4119C7.20427 25.5023 7.29673 25.6077 7.37378 25.7283C7.38919 25.8036 7.3969 25.8714 7.3969 25.9317V26.1577C7.3969 26.4139 7.36608 26.6399 7.30444 26.8358C7.2428 27.0316 7.16575 27.2125 7.07329 27.3782C6.98082 27.559 6.88066 27.7323 6.77279 27.898C6.66492 28.0789 6.56475 28.2747 6.47229 28.4857C6.31819 28.5158 6.1949 28.5309 6.10244 28.5309C5.87129 28.5309 5.67866 28.4706 5.52456 28.3501C5.38587 28.2295 5.26259 28.0789 5.15471 27.898C5.04684 27.7323 4.93897 27.559 4.8311 27.3782C4.73864 27.1974 4.62306 27.0467 4.48437 26.9262C4.49978 26.8508 4.50749 26.783 4.50749 26.7228C4.5229 26.6625 4.5306 26.5947 4.5306 26.5193C4.5306 26.218 4.47667 25.9242 4.36879 25.6379C4.27633 25.3516 4.16846 25.0804 4.04518 24.8242C4.02977 24.3119 3.97583 23.8071 3.88337 23.3099C3.79091 22.8127 3.65992 22.323 3.49041 21.8408C3.52123 21.66 3.54435 21.4867 3.55976 21.3209C3.57517 21.1401 3.58287 20.9668 3.58287 20.8011C3.58287 20.3641 3.55976 19.9272 3.51353 19.4902C3.4673 19.0532 3.45959 18.6163 3.49041 18.1793C3.44418 18.104 3.39795 18.0437 3.35172 17.9985C3.30549 17.9382 3.26696 17.8704 3.23614 17.7951H3.14368C2.91253 17.7951 2.68908 17.8177 2.47334 17.8629C2.2576 17.893 2.04185 17.9081 1.82611 17.9081C1.74906 17.9081 1.67971 17.9081 1.61807 17.9081C1.55643 17.893 0.608703 17.9382 0.531652 17.9232C0.36214 17.7574 0.231153 17.5691 0.138692 17.3581C0.0462306 17.1472 0 16.9287 0 16.7027C0 16.3712 0.0924613 16.0698 0.277384 15.7986C0.662639 15.7082 1.91857 15.5424 2.28842 15.4219C2.67367 15.2863 3.04352 15.1281 3.39795 14.9473C3.44418 14.7212 3.4673 14.4952 3.4673 14.2692C3.48271 14.0432 3.56746 13.8322 3.72157 13.6364C3.67533 13.5158 3.59828 13.4103 3.49041 13.3199C3.39795 13.2145 3.35172 13.0939 3.35172 12.9583C3.35172 12.883 3.36713 12.785 3.39795 12.6645C3.55205 12.4987 3.65992 12.2878 3.72157 12.0316C3.78321 11.7755 3.83714 11.5043 3.88337 11.218C3.9296 10.9317 3.97583 10.6454 4.02206 10.3591C4.08371 10.0728 4.18387 9.81667 4.32256 9.59066C4.29174 9.47012 4.26863 9.34204 4.25322 9.20643C4.23781 9.05575 4.2301 8.92014 4.2301 8.7996C4.2301 8.61878 4.23781 8.43797 4.25322 8.25716C4.28404 8.06128 4.33027 7.88046 4.39191 7.71472C4.2224 7.51883 4.08371 7.29282 3.97583 7.03666C3.86796 6.76544 3.81403 6.50176 3.81403 6.24561C3.81403 5.74837 4.06059 5.43194 4.55372 5.29633C4.53831 5.23606 4.5229 5.18332 4.50749 5.13812C4.50749 5.09292 4.50749 5.04771 4.50749 5.00251C4.50749 4.8669 4.54601 4.73882 4.62306 4.61828C4.70011 4.49774 4.76175 4.3772 4.80799 4.25665C4.73093 4.06077 4.69241 3.89503 4.69241 3.75942C4.69241 3.63887 4.71552 3.5334 4.76175 3.44299C4.80799 3.33752 4.84651 3.22451 4.87733 3.10397C4.92356 2.95329 4.95438 2.81768 4.96979 2.69714C5.00061 2.57659 5.04684 2.47112 5.10848 2.38071C5.17012 2.29031 5.24718 2.2225 5.33964 2.1773C5.44751 2.13209 5.60932 2.10949 5.82506 2.10949C6.16408 2.10949 6.4877 2.21497 6.7959 2.42592C7.11952 2.6218 7.36608 2.84781 7.53559 3.10397C7.7051 3.0889 7.8515 3.05876 7.97478 3.01356C8.11347 2.95329 8.23676 2.90055 8.34463 2.85535C8.46791 2.81015 8.59119 2.77248 8.71447 2.74234C8.85316 2.69714 9.01497 2.68207 9.19989 2.69714C9.24613 2.59166 9.32318 2.52386 9.43105 2.49372C9.55433 2.44852 9.67761 2.41838 9.80089 2.40331C9.92417 2.37318 10.0398 2.33551 10.1476 2.29031C10.2555 2.2451 10.3248 2.16223 10.3557 2.04169C10.4173 2.08689 10.4866 2.10949 10.5637 2.10949C10.6407 2.10949 10.7178 2.10196 10.7949 2.08689C10.8719 2.05676 10.9567 2.04169 11.0491 2.04169C11.1416 2.04169 11.2186 2.07182 11.2803 2.13209C11.6809 1.92115 12.1047 1.77047 12.5516 1.68006C13.0139 1.57459 13.4685 1.51431 13.9154 1.49925C14.9787 0.92667 16.096 0.534907 17.2671 0.323958C18.4537 0.113009 19.6403 0.0075339 20.8269 0.0075339C20.9964 0.0075339 21.1582 0.0075339 21.3123 0.0075339C21.4818 -0.0075339 21.6436 0 21.7977 0.0301356C21.9673 0.0602712 22.1522 0.113009 22.3525 0.188348C22.5683 0.263687 22.7763 0.354093 22.9766 0.459568C23.1924 0.565043 23.3927 0.685585 23.5776 0.821195C23.7625 0.941738 23.9166 1.05475 24.0399 1.16022C24.1632 1.43144 24.2248 1.69513 24.2248 1.95128C24.2248 2.07182 24.2171 2.19237 24.2017 2.31291C24.1863 2.41838 24.1786 2.53139 24.1786 2.65193C24.1786 2.83275 24.2171 3.03616 24.2942 3.26218C24.248 3.24711 24.1709 3.23958 24.063 3.23958C23.9243 3.23958 23.8088 3.26971 23.7163 3.32998C23.6238 3.39026 23.5391 3.45806 23.462 3.5334C23.385 3.60874 23.3079 3.67654 23.2309 3.73682C23.1692 3.79709 23.1076 3.82722 23.046 3.82722C22.9227 3.82722 22.8148 3.80462 22.7224 3.75942C22.6453 3.71421 22.5605 3.66901 22.4681 3.62381C22.391 3.56354 22.3063 3.51833 22.2138 3.4882C22.1214 3.44299 22.0135 3.42793 21.8902 3.44299V3.35259C21.8902 3.18684 21.8363 3.08137 21.7284 3.03616C21.6205 2.97589 21.5358 2.89302 21.4741 2.78754C21.243 2.77248 21.0118 2.74234 20.7807 2.69714C20.5649 2.65193 20.3415 2.62933 20.1103 2.62933C19.8021 2.62933 19.5633 2.73481 19.3937 2.94576C19.3167 2.91562 19.2474 2.87795 19.1857 2.83275C19.1395 2.78754 19.0701 2.77248 18.9777 2.78754H18.9083C18.0762 2.78754 17.2594 2.87795 16.4581 3.05876C15.6568 3.22451 14.8631 3.43546 14.0772 3.69161C13.2913 3.9327 12.5054 4.19638 11.7195 4.48267C10.9335 4.76896 10.1476 5.01758 9.3617 5.22853C9.17678 5.46961 8.98415 5.65043 8.78382 5.77097C8.58349 5.87644 8.38315 5.96685 8.18282 6.04219C7.9979 6.11753 7.81298 6.19287 7.62805 6.26821C7.44313 6.34355 7.28132 6.46409 7.14263 6.62983C7.01935 6.79558 6.91918 7.02913 6.84213 7.33049C6.78049 7.61678 6.76508 8.01607 6.7959 8.52838C6.71885 8.61878 6.67262 8.71673 6.65721 8.8222C6.6418 8.92767 6.62639 9.03315 6.61098 9.13862C6.59557 9.22903 6.57245 9.31944 6.54163 9.40984C6.51081 9.50025 6.45688 9.58312 6.37983 9.65846C6.41065 9.80914 6.43376 9.95982 6.44917 10.1105C6.46458 10.2612 6.47229 10.4119 6.47229 10.5625C6.47229 11.1954 6.36442 11.8132 6.14867 12.4159C6.22572 12.5364 6.26425 12.672 6.26425 12.8227C6.26425 12.9884 6.24113 13.1391 6.1949 13.2747C6.14867 13.4103 6.12556 13.561 6.12556 13.7268C6.12556 13.8925 6.15638 14.0281 6.21802 14.1336C6.31048 14.1336 6.36442 14.1637 6.37983 14.224H6.51852C6.7959 14.224 7.03476 14.1562 7.23509 14.0206C7.43543 13.885 7.65117 13.8172 7.88232 13.8172C7.92855 13.8172 7.98249 13.8322 8.04413 13.8624C8.10577 13.8925 8.15971 13.9076 8.20594 13.9076C8.31381 13.9076 8.36004 13.8699 8.34463 13.7946C8.32922 13.7192 8.36774 13.6665 8.4602 13.6364L9.29236 13.5008C9.8163 13.4103 10.3094 13.3049 10.7717 13.1843C11.2495 13.0487 11.7195 12.8528 12.1818 12.5967C12.2896 12.6419 12.4129 12.6645 12.5516 12.6645C12.6749 12.6645 12.8059 12.6494 12.9446 12.6193C13.0833 12.5741 13.2143 12.5515 13.3375 12.5515C13.4454 12.5515 13.5302 12.5665 13.5918 12.5967C13.6843 12.5364 13.7998 12.4912 13.9385 12.4611C14.0772 12.4159 14.1543 12.3255 14.1697 12.1899H14.2159C14.2776 12.1899 14.3238 12.2049 14.3546 12.2351C14.3854 12.2652 14.4317 12.2803 14.4933 12.2803H14.5858C14.9094 12.1296 15.2022 12.0166 15.4641 11.9412C15.8956 11.8358 16.3579 11.7454 16.8511 11.67C17.3442 11.5796 17.7834 11.4289 18.1686 11.218C18.6155 11.218 19.047 11.1502 19.4631 11.0146C19.8946 10.8639 20.3261 10.7885 20.7576 10.7885C20.9579 10.7885 21.1428 10.8187 21.3123 10.879C21.4664 10.7735 21.6436 10.6981 21.844 10.6529C22.0597 10.6077 22.2369 10.5249 22.3756 10.4043C22.4681 10.4194 22.5605 10.4345 22.653 10.4495C22.7609 10.4495 22.8687 10.4495 22.9766 10.4495C23.4389 10.4495 23.8781 10.3893 24.2942 10.2687C24.7257 10.1331 25.1649 10.0352 25.6118 9.97489C25.7196 10.0954 25.789 10.2235 25.8198 10.3591C25.866 10.4797 25.8892 10.6077 25.8892 10.7433Z" fill="#666666"/>
<path d="M38.867 22.3606C38.8208 22.5716 38.7206 22.7449 38.5665 22.8805C38.4278 23.001 38.2583 23.0989 38.058 23.1743C37.8576 23.2496 37.6496 23.3024 37.4339 23.3325C37.2335 23.3476 37.0486 23.3551 36.8791 23.3551C36.802 23.3551 36.725 23.3551 36.6479 23.3551C36.5863 23.34 36.517 23.3325 36.4399 23.3325C36.3629 23.3325 36.3243 23.3702 36.3243 23.4455C36.3243 23.5208 36.2858 23.5736 36.2087 23.6037C36.1317 23.5736 36.0546 23.551 35.9776 23.5359C35.9005 23.5208 35.8235 23.5133 35.7464 23.5133C35.6386 23.5133 35.5307 23.5208 35.4228 23.5359C35.3304 23.551 35.2379 23.5585 35.1454 23.5585C35.0222 23.5585 34.9297 23.5434 34.8681 23.5133C34.8218 23.4832 34.7756 23.453 34.7294 23.4229C34.6985 23.3777 34.66 23.3325 34.6138 23.2873C34.583 23.2421 34.529 23.2044 34.452 23.1743C34.3441 23.1291 34.2517 23.1215 34.1746 23.1517C34.113 23.1818 34.0128 23.1366 33.8741 23.0161C33.6892 22.8654 33.5274 22.6846 33.3887 22.4736C33.2654 22.2476 33.1421 22.0141 33.0188 21.773C32.8956 21.5319 32.7646 21.2908 32.6259 21.0497C32.4872 20.8086 32.3254 20.5977 32.1405 20.4169H31.9555C31.6781 20.4169 31.4855 20.5299 31.3776 20.7559C31.3006 20.7107 31.2235 20.658 31.1465 20.5977C31.0694 20.5223 30.9847 20.4621 30.8922 20.4169C30.5378 20.5223 30.1679 20.6128 29.7827 20.6881C29.3974 20.7634 29.0122 20.8011 28.6269 20.8011H28.3033C28.2109 20.8011 28.1107 20.786 28.0028 20.7559C27.8487 20.8162 27.71 20.8915 27.5867 20.9819C27.4635 21.0573 27.3248 21.0949 27.1707 21.0949C27.0782 21.0949 26.9703 21.0648 26.847 21.0045C26.7546 21.0045 26.7084 21.0422 26.7084 21.1175C26.7238 21.1929 26.6775 21.2305 26.5697 21.2305H26.3616C26.1459 21.2305 25.9301 21.2381 25.7144 21.2531C25.5141 21.2682 25.306 21.2757 25.0903 21.2757C24.7975 21.2757 24.497 21.2381 24.1888 21.1627C24.1117 21.2079 24.027 21.2305 23.9345 21.2305C23.8729 21.2607 23.8266 21.3134 23.7958 21.3887C23.765 21.449 23.7342 21.5093 23.7034 21.5696C23.6725 21.6148 23.6263 21.66 23.5647 21.7052C23.5184 21.7353 23.4491 21.7428 23.3566 21.7278C23.3258 21.9086 23.2488 22.0517 23.1255 22.1572C23.0022 22.2627 22.9406 22.4209 22.9406 22.6318C22.771 22.7222 22.6324 22.8353 22.5245 22.9709C22.4166 23.1065 22.3087 23.2496 22.2009 23.4003C22.093 23.551 21.9774 23.6941 21.8541 23.8297C21.7463 23.9653 21.6076 24.0708 21.4381 24.1462C21.361 24.2366 21.3379 24.3797 21.3687 24.5756C21.1992 24.7112 20.9912 24.8317 20.7446 24.9372C20.498 25.0427 20.2669 25.0954 20.0511 25.0954C19.6043 25.0954 19.296 24.8619 19.1265 24.3948C19.1265 24.2441 19.1419 24.0859 19.1728 23.9201C19.1882 23.7393 19.219 23.5736 19.2652 23.4229C19.3115 23.2572 19.3808 23.114 19.4733 22.9935C19.5657 22.8579 19.6967 22.7599 19.8662 22.6996C19.8662 22.564 19.82 22.4736 19.7275 22.4284C19.6351 22.3682 19.5965 22.2702 19.612 22.1346C20.028 21.9387 20.3902 21.6826 20.6984 21.3661C21.0066 21.0497 21.284 20.7182 21.5305 20.3717C21.7925 20.01 22.0545 19.6484 22.3164 19.2868C22.5784 18.9252 22.8712 18.6012 23.1948 18.3149V17.8403C23.6571 17.3581 23.9576 16.8157 24.0963 16.213C24.2658 16.1828 24.3737 16.1075 24.4199 15.9869C24.4816 15.8664 24.5124 15.7233 24.5124 15.5575C24.5895 15.5575 24.6357 15.5274 24.6511 15.4671C24.6819 15.3918 24.7513 15.3692 24.8591 15.3993C24.9978 15.0377 25.1519 14.7062 25.3214 14.4048C25.4909 14.1035 25.6605 13.8021 25.83 13.5008C25.9995 13.1843 26.1459 12.8604 26.2692 12.5289C26.4079 12.1974 26.508 11.8282 26.5697 11.4214C26.7854 11.4063 26.901 11.3084 26.9164 11.1276C26.9472 10.9317 26.978 10.7584 27.0089 10.6077C27.24 10.3968 27.4095 10.1482 27.5174 9.86188C27.6407 9.57559 27.7485 9.28177 27.841 8.98041C27.9335 8.66399 28.0336 8.3551 28.1415 8.05374C28.2648 7.73732 28.0876 6.96133 28.3033 6.72024V6.65244C28.3033 6.5771 28.2725 6.53189 28.2109 6.51683C28.1492 6.48669 28.1184 6.43395 28.1184 6.35861C28.1338 6.34355 28.1415 6.32848 28.1415 6.31341C28.3264 6.23807 28.4651 6.11753 28.5576 5.95178C28.65 5.77097 28.7887 5.64289 28.9737 5.56755C29.2973 5.82371 29.9291 6.47916 30.1757 6.53943C30.4222 6.58463 30.7458 6.6223 31.1465 6.65244C31.3468 6.86339 31.4547 7.11954 31.4701 7.42089C31.5009 7.70718 31.5549 7.99347 31.6319 8.27976C31.7552 8.76193 31.8862 9.23656 32.0249 9.70367C32.179 10.1557 32.2946 10.6228 32.3716 11.105C32.4178 11.3913 32.5026 11.6625 32.6259 11.9186C32.7492 12.1748 32.8339 12.4385 32.8801 12.7097C32.911 12.9206 32.911 13.1617 32.8801 13.4329C32.8493 13.6891 32.8801 13.9151 32.9726 14.111L33.1344 14.4726C33.2115 14.6384 33.2731 14.8117 33.3193 14.9925C33.381 15.1733 33.4349 15.3541 33.4811 15.5349C33.6044 15.9869 33.7123 16.4766 33.8048 17.004C33.9126 17.5163 34.0744 17.9834 34.2902 18.4053C34.3672 18.556 34.4828 18.6615 34.6369 18.7217C34.8064 18.782 34.9913 18.8272 35.1917 18.8574C35.392 18.8724 35.5846 18.88 35.7696 18.88C35.9699 18.8649 36.1394 18.8574 36.2781 18.8574H36.5092C36.6017 18.8574 36.6942 18.8724 36.7866 18.9026C36.8483 19.0231 36.8791 19.1286 36.8791 19.219C36.8791 19.3998 36.8175 19.5429 36.6942 19.6484C36.5709 19.7539 36.5092 19.8744 36.5092 20.01C36.5092 20.0854 36.5401 20.1683 36.6017 20.2587C36.5401 20.2436 36.4476 20.2361 36.3243 20.2361C35.9699 20.2361 35.6232 20.2963 35.2841 20.4169C35.4074 20.673 35.5692 20.8915 35.7696 21.0723C35.9853 21.2381 36.2087 21.3963 36.4399 21.547C36.594 21.4264 36.7558 21.3661 36.9253 21.3661C37.1102 21.3661 37.2798 21.4113 37.4339 21.5018C37.6034 21.5771 37.7806 21.6148 37.9655 21.6148C38.1042 21.6148 38.2044 21.5922 38.266 21.547C38.3893 21.6826 38.4895 21.8257 38.5665 21.9764C38.6436 22.112 38.7437 22.2401 38.867 22.3606ZM31.6319 18.7443C31.6011 18.4882 31.5472 18.3074 31.4701 18.2019C31.4085 18.0814 31.3545 17.9382 31.3083 17.7725C31.2467 17.5615 31.2004 17.3355 31.1696 17.0944C31.1542 16.8533 31.1234 16.6198 31.0771 16.3938C30.9693 15.8815 30.846 15.3692 30.7073 14.8569C30.584 14.3445 30.4222 13.8473 30.2219 13.3651C30.2835 13.2747 30.3143 13.1919 30.3143 13.1165V13.0487C30.1757 12.898 30.0755 12.7172 30.0138 12.5063C29.9522 12.2803 29.8906 12.0618 29.8289 11.8508C29.7827 11.6248 29.7133 11.4214 29.6209 11.2406C29.5438 11.0447 29.4128 10.8865 29.2279 10.7659C29.1817 10.8564 29.1586 10.9618 29.1586 11.0824C29.1586 11.1878 29.1663 11.2858 29.1817 11.3762C29.2125 11.4666 29.2279 11.5645 29.2279 11.67C29.0738 11.7454 28.9582 11.8659 28.8812 12.0316C28.8196 12.1823 28.7117 12.3029 28.5576 12.3933C28.4343 12.8754 28.2571 13.335 28.0259 13.772C27.7948 14.1939 27.5482 14.6158 27.2862 15.0377C27.0397 15.4596 26.8008 15.889 26.5697 16.326C26.3385 16.7479 26.1536 17.1924 26.0149 17.6595C25.8146 17.7951 25.6759 17.9684 25.5988 18.1793C25.5372 18.3903 25.5064 18.6012 25.5064 18.8122C25.6451 18.8875 25.7992 18.9327 25.9687 18.9478C26.1536 18.9478 26.3308 18.9478 26.5003 18.9478C26.6698 18.9478 26.8316 18.9628 26.9857 18.993C27.1398 19.0231 27.2785 19.0984 27.4018 19.219C27.6021 19.1587 27.8179 19.121 28.049 19.106C28.2956 19.0758 28.4959 19.008 28.65 18.9026C28.9582 19.008 29.2896 19.0608 29.644 19.0608C29.8289 19.0608 30.0061 19.0457 30.1757 19.0156C30.3606 18.9854 30.5378 18.9478 30.7073 18.9026C30.846 18.9327 30.9539 18.9854 31.0309 19.0608C31.108 19.121 31.2235 19.1436 31.3776 19.1286C31.4547 19.0683 31.5009 19.008 31.5163 18.9478C31.5318 18.8724 31.5703 18.8046 31.6319 18.7443Z" fill="#666666"/>
<path d="M53.6479 9.16123C53.617 9.34204 53.5708 9.50025 53.5092 9.63586C53.4629 9.7564 53.4552 9.92215 53.4861 10.1331C53.332 10.1482 53.2087 10.2009 53.1162 10.2913C53.0392 10.3666 52.9698 10.4571 52.9082 10.5625C52.8619 10.668 52.808 10.781 52.7464 10.9016C52.7001 11.007 52.6385 11.105 52.5614 11.1954C52.6847 11.7378 52.7541 12.2878 52.7695 12.8453C52.7849 13.4028 52.8234 13.9528 52.8851 14.4952C52.9621 15.1883 53.0777 15.8739 53.2318 16.552C53.4013 17.215 53.4861 17.893 53.4861 18.5861C53.4861 18.7971 53.4784 18.993 53.4629 19.1738C53.4629 19.3546 53.4629 19.5429 53.4629 19.7388C53.4629 19.8594 53.4629 19.9874 53.4629 20.1231C53.4784 20.2436 53.4861 20.3641 53.4861 20.4847C53.4861 20.9216 53.4244 21.3586 53.3011 21.7956C53.1933 22.2325 53.1085 22.6695 53.0469 23.1065C52.8619 23.2722 52.7001 23.453 52.5614 23.6489C52.4382 23.8448 52.3072 24.0256 52.1685 24.1914C52.0298 24.3571 51.868 24.5003 51.6831 24.6208C51.4981 24.7564 51.267 24.8468 50.9896 24.892C50.9434 25.0427 50.8509 25.1557 50.7122 25.231C50.5889 25.3064 50.4811 25.4119 50.3886 25.5475H50.3424C49.9571 25.5475 49.6258 25.4947 49.3484 25.3893C49.071 25.2838 48.8091 25.1632 48.5625 25.0276C48.3313 24.892 48.0925 24.7489 47.8459 24.5982C47.5994 24.4475 47.3143 24.327 46.9907 24.2366C46.5592 23.89 46.1662 23.5133 45.8118 23.1065C45.4573 22.6846 45.0567 22.3079 44.6098 21.9764C44.5019 21.675 44.3555 21.4264 44.1706 21.2305C44.0011 21.0347 43.8316 20.8086 43.6621 20.5525C43.585 20.447 43.5234 20.3491 43.4771 20.2587C43.4463 20.1683 43.4001 20.0628 43.3384 19.9422C43.2922 19.8217 43.2152 19.7388 43.1073 19.6936C43.0148 19.6484 42.9301 19.5957 42.853 19.5354C42.7297 19.0683 42.5525 18.6389 42.3214 18.2471C42.0902 17.8553 41.8205 17.4787 41.5123 17.117C41.4199 17.2828 41.3428 17.4636 41.2812 17.6595C41.2349 17.8403 41.1887 18.0286 41.1425 18.2245C41.0963 18.4053 41.0346 18.5937 40.9576 18.7896C40.8959 18.9704 40.8112 19.1361 40.7033 19.2868V19.3546C40.7033 19.4299 40.7341 19.4751 40.7958 19.4902C40.8574 19.5053 40.8882 19.5505 40.8882 19.6258C40.8882 19.6409 40.8805 19.656 40.8651 19.671C40.8651 19.6861 40.8651 19.7012 40.8651 19.7162C40.788 19.7765 40.7264 19.8518 40.6802 19.9422C40.6494 20.0326 40.5723 20.0854 40.449 20.1005C40.4644 20.1758 40.4721 20.2511 40.4721 20.3265V20.5299C40.4721 20.9668 40.4182 21.4038 40.3103 21.8408C40.2179 22.2777 40.1716 22.7223 40.1716 23.1743V23.4681C40.1716 23.5736 40.1793 23.6715 40.1948 23.7619C40.2256 23.8523 40.2718 23.9427 40.3334 24.0331C40.3951 24.1236 41.0731 24.6476 41.0731 24.723C41.0731 24.8285 41.0269 24.9264 40.9344 25.0168C41.0423 25.0921 41.1656 25.175 41.3043 25.2654C41.443 25.3558 41.5663 25.4538 41.6741 25.5592C41.7974 25.6798 41.8976 25.8003 41.9746 25.9209C42.0517 26.0565 42.0902 26.1996 42.0902 26.3503C42.0902 26.6065 42.0055 26.7873 41.8359 26.8927C41.6664 26.9982 41.4584 27.0811 41.2118 27.1414C40.9807 27.2016 40.7341 27.2544 40.4721 27.2996C40.2256 27.3598 39.3703 27.0166 39.2008 27.1522H39.1315C38.9465 27.1522 38.8078 27.0994 38.7154 26.994C38.6229 26.8885 38.4842 26.8358 38.2993 26.8358C38.0065 26.3687 37.8062 25.8413 37.6983 25.2536C37.5904 24.6811 37.5365 24.1311 37.5365 23.6037C37.5365 22.9558 37.5981 22.3079 37.7214 21.66C37.8293 21.0121 37.968 20.3717 38.1375 19.7388C38.2916 19.106 38.4611 18.4807 38.646 17.8629C38.8464 17.23 39.0313 16.5972 39.2008 15.9643L39.2239 15.8965C39.2239 15.8212 39.2008 15.7685 39.1546 15.7383C39.1237 15.7082 39.1083 15.663 39.1083 15.6027C39.1083 15.5726 39.116 15.5575 39.1315 15.5575C39.1777 15.4068 39.2239 15.2637 39.2701 15.1281C39.3318 14.9925 39.378 14.8418 39.4088 14.676C39.5013 14.2541 39.5629 13.8247 39.5938 13.3877C39.64 12.9357 39.6631 12.4912 39.6631 12.0542C39.6785 11.6173 39.6939 11.1803 39.7093 10.7433C39.7402 10.2913 39.7941 9.84681 39.8711 9.40984C39.9944 9.2893 40.11 9.16123 40.2179 9.02562C40.3257 8.89 40.4644 8.76946 40.6339 8.66399C40.9422 8.67906 41.2504 8.72426 41.5586 8.7996C41.8668 8.87494 42.1596 8.99548 42.4369 9.16123C42.6219 9.80914 42.7451 10.4571 42.8068 11.105C42.8838 11.7529 43.0071 12.4008 43.1766 13.0487V13.1165C43.1766 13.1919 43.2152 13.2295 43.2922 13.2295C43.3847 13.2145 43.454 13.2371 43.5002 13.2973C43.4694 13.3425 43.4463 13.3953 43.4309 13.4555C43.4309 13.5158 43.4309 13.5761 43.4309 13.6364V14.0206C43.4617 14.1411 43.5002 14.2692 43.5465 14.4048C43.5927 14.5404 43.6929 14.6233 43.847 14.6534C43.924 15.1356 44.0396 15.5801 44.1937 15.9869C44.3478 16.3938 44.525 16.7855 44.7254 17.1622C44.9257 17.5389 45.1414 17.9156 45.3726 18.2923C45.6037 18.6539 45.8426 19.0382 46.0892 19.445C46.4744 19.7313 46.8057 20.0628 47.0831 20.4395C47.3605 20.8011 47.6379 21.1552 47.9153 21.5018C48.2081 21.8332 48.5317 22.1271 48.8861 22.3832C49.256 22.6394 49.7337 22.7976 50.3193 22.8579C50.3963 22.7976 50.4502 22.7147 50.4811 22.6092L50.5966 22.2928C50.6429 22.1873 50.6891 22.0969 50.7353 22.0216C50.797 21.9312 50.8817 21.8634 50.9896 21.8182C51.0204 21.3963 51.0512 20.9668 51.0821 20.5299C51.1283 20.0929 51.2285 19.6786 51.3826 19.2868C51.3055 19.1512 51.267 18.9854 51.267 18.7896C51.267 18.6389 51.2747 18.4957 51.2901 18.3601C51.3209 18.2245 51.3363 18.0889 51.3363 17.9533C51.3363 17.667 51.2747 17.4334 51.1514 17.2526C51.1514 17.1472 51.1591 17.0417 51.1745 16.9362C51.1899 16.8157 51.2362 16.7027 51.3132 16.5972C51.1899 16.2958 51.0898 15.9794 51.0127 15.6479C50.9511 15.3164 50.9203 14.9774 50.9203 14.6308C50.9203 14.435 50.9434 14.2315 50.9896 14.0206C50.8971 13.7946 50.8355 13.5309 50.8047 13.2295L50.7122 12.3029C50.6814 11.9864 50.6352 11.6926 50.5735 11.4214C50.5119 11.1502 50.3963 10.9317 50.2268 10.7659C50.3193 10.6303 50.3655 10.4721 50.3655 10.2913C50.3655 9.98995 50.3193 9.70367 50.2268 9.43245C50.1343 9.16123 50.0881 8.87494 50.0881 8.57358C50.0881 8.36263 50.1343 8.15168 50.2268 7.94073C50.5658 7.9558 50.8971 7.99347 51.2208 8.05374C51.5598 8.09895 51.8911 8.12155 52.2147 8.12155C52.3072 8.24209 52.415 8.34003 52.5383 8.41537C52.6616 8.49071 52.7926 8.56605 52.9313 8.64139C53.07 8.70166 53.201 8.76946 53.3242 8.8448C53.4629 8.92014 53.5708 9.02562 53.6479 9.16123Z" fill="#666666"/>
<path d="M71.2488 12.8679C71.2488 13.0186 71.1949 13.1165 71.087 13.1617C70.9791 13.2069 70.9252 13.2973 70.9252 13.4329C70.9252 13.4782 70.9406 13.5158 70.9714 13.546C71.0022 13.5761 71.0176 13.6213 71.0176 13.6816V13.772C70.8327 14.6459 70.563 15.4068 70.2086 16.0547C69.8696 16.7027 69.4689 17.2978 69.0066 17.8403C68.5443 18.3827 68.0204 18.895 67.4348 19.3772C66.8646 19.8594 66.2482 20.3641 65.5855 20.8915C65.4006 21.0422 65.208 21.1929 65.0077 21.3435C64.8227 21.4942 64.6455 21.6524 64.476 21.8182L63.9675 22.2928C63.9521 22.3079 63.8673 22.3456 63.7132 22.4058C63.5591 22.451 63.4666 22.4812 63.4358 22.4962C63.2201 22.5866 62.9889 22.6921 62.7424 22.8127C62.5112 22.9332 62.3109 23.0839 62.1414 23.2647C61.8332 23.2647 61.5712 23.3099 61.3554 23.4003C61.1397 23.4907 60.9008 23.6113 60.6389 23.7619C60.5618 23.7619 60.4925 23.7469 60.4308 23.7167C60.3846 23.6866 60.3307 23.6565 60.269 23.6263C60.2074 23.5962 60.138 23.5811 60.061 23.5811C59.9993 23.566 59.9146 23.5736 59.8067 23.6037C59.6218 23.3024 59.4215 23.0462 59.2057 22.8353C58.99 22.6243 58.6972 22.4962 58.3273 22.451C58.2811 22.1949 58.1732 21.999 58.0037 21.8634C57.8342 21.7127 57.6647 21.5545 57.4952 21.3887C57.4644 21.2983 57.4412 21.1929 57.4258 21.0723C57.4104 20.9518 57.3796 20.8388 57.3334 20.7333C57.2871 20.6278 57.2255 20.5374 57.1485 20.4621C57.0714 20.3867 56.9635 20.3491 56.8248 20.3491C56.8094 20.2587 56.848 20.2135 56.9404 20.2135C57.0329 20.2135 57.0791 20.1758 57.0791 20.1005C57.0791 20.01 57.0637 19.9196 57.0329 19.8292C57.0021 19.7388 56.9866 19.6409 56.9866 19.5354C56.9866 19.4601 56.9943 19.3923 57.0098 19.332C57.0252 19.2717 57.0483 19.2039 57.0791 19.1286C57.0329 18.7217 57.0098 18.3074 57.0098 17.8855C57.0098 17.0718 57.0637 16.2732 57.1716 15.4897C57.2948 14.6911 57.3565 13.885 57.3565 13.0713C57.3565 12.7097 57.3334 12.3481 57.2871 11.9864C57.2563 11.6248 57.187 11.2707 57.0791 10.9242C56.7247 10.9995 56.3702 11.0899 56.0158 11.1954C55.6614 11.2858 55.33 11.4139 55.0218 11.5796C54.8523 11.4741 54.6751 11.4139 54.4902 11.3988C54.2899 11.3687 54.0972 11.3235 53.9123 11.2632C53.8044 11.0522 53.7505 10.8338 53.7505 10.6077C53.7505 10.3968 53.789 10.1934 53.8661 9.99749L54.0972 9.40984C54.4671 9.33451 54.8369 9.2215 55.2068 9.07082C55.5612 8.92014 55.9233 8.78453 56.2932 8.66399C56.4165 8.63385 56.5706 8.59618 56.7555 8.55098C56.9558 8.50578 57.0945 8.46811 57.1716 8.43797C57.2794 8.39277 57.3488 8.30989 57.3796 8.18935C57.4258 8.05374 57.4875 7.94073 57.5645 7.85033H57.9575C58.0499 7.85033 58.1501 7.85786 58.258 7.87293C58.3659 7.87293 58.466 7.89553 58.5585 7.94073C59.1133 7.80512 59.668 7.72225 60.2228 7.69211C60.7776 7.64691 61.3477 7.58664 61.9333 7.5113C61.995 7.5113 62.0874 7.50377 62.2107 7.4887L62.6037 7.42089C62.7424 7.39076 62.8656 7.36816 62.9735 7.35309C63.0968 7.32295 63.1815 7.30789 63.2278 7.30789C63.274 7.30789 63.2971 7.33049 63.2971 7.37569H63.6901C64.3527 7.37569 65 7.45856 65.6318 7.62431L67.5272 8.12155C67.7892 8.3325 68.0512 8.53591 68.3131 8.73179C68.5751 8.92767 68.8679 9.10095 69.1915 9.25163C69.2686 9.49272 69.3842 9.6886 69.5383 9.83928C69.7078 9.97489 69.8927 10.1256 70.093 10.2913C70.1701 10.4872 70.2702 10.6981 70.3935 10.9242C70.5322 11.1351 70.6632 11.3536 70.7865 11.5796C70.9098 11.8056 71.0176 12.0316 71.1101 12.2577C71.2026 12.4686 71.2488 12.672 71.2488 12.8679ZM69.0991 13.2069C68.9296 12.8604 68.7677 12.4987 68.6136 12.122C68.4595 11.7454 68.2669 11.4063 68.0358 11.105C67.7584 11.0296 67.4733 10.9392 67.1805 10.8338C66.9031 10.7132 66.7105 10.5098 66.6026 10.2235C66.5718 10.2386 66.5179 10.2461 66.4408 10.2461C66.3021 10.2461 66.1788 10.1934 66.071 10.0879C65.9631 9.98242 65.8398 9.91462 65.7011 9.88448C65.5778 9.86941 65.4083 9.84681 65.1926 9.81667C64.9922 9.78654 64.7765 9.76394 64.5454 9.74887C64.3142 9.7338 64.083 9.71873 63.8519 9.70367C63.6361 9.6886 63.4666 9.68106 63.3434 9.68106C63.2201 9.68106 63.0891 9.6886 62.9504 9.70367C62.8271 9.70367 62.6961 9.7112 62.5574 9.72627C62.4342 9.72627 62.3571 9.74887 62.3263 9.79407C62.2955 9.82421 62.2338 9.85434 62.1414 9.88448C62.0643 9.85434 61.9796 9.83928 61.8871 9.83928H61.6097C61.2861 9.83928 60.9625 9.89201 60.6389 9.99749C60.3307 10.0879 60.0225 10.216 59.7143 10.3817V10.4721C59.7143 10.5927 59.7682 10.6605 59.8761 10.6755C59.9839 10.6906 60.0456 10.7509 60.061 10.8564C59.9839 10.8564 59.9223 10.8639 59.8761 10.879C59.8298 10.879 59.8067 10.9317 59.8067 11.0372C59.8067 11.1878 59.8221 11.3536 59.8529 11.5344C59.8992 11.7152 59.9223 11.896 59.9223 12.0768C59.9223 12.2125 59.9069 12.3707 59.8761 12.5515C59.8452 12.7323 59.7682 12.8754 59.6449 12.9809C59.799 13.1165 59.8761 13.2973 59.8761 13.5234C59.8761 13.674 59.8452 13.8322 59.7836 13.998C59.722 14.1637 59.6449 14.3069 59.5524 14.4274C59.5216 15.0603 59.46 15.7007 59.3675 16.3486C59.2751 16.9965 59.2288 17.6369 59.2288 18.2697C59.2288 18.5861 59.2442 18.895 59.2751 19.1964C59.3213 19.4977 59.3906 19.7991 59.4831 20.1005C59.6526 20.2662 59.8298 20.3943 60.0148 20.4847C60.2151 20.5751 60.4231 20.6655 60.6389 20.7559V20.8237C60.6389 20.8689 60.608 20.9141 60.5464 20.9593C60.4848 21.0045 60.4539 21.0648 60.4539 21.1401C60.4539 21.2004 60.4848 21.2305 60.5464 21.2305C61.1936 21.0497 61.8023 20.8312 62.3725 20.5751C62.9427 20.3189 63.4743 19.9724 63.9675 19.5354C64.0137 19.4902 64.0599 19.4676 64.1062 19.4676C64.137 19.4676 64.1755 19.4751 64.2217 19.4902C64.2834 19.5053 64.3373 19.5203 64.3835 19.5354L64.3604 19.445C64.3604 19.3546 64.3835 19.2717 64.4298 19.1964C64.4914 19.121 64.5608 19.0532 64.6378 18.993L64.869 18.7896C64.946 18.7142 65.0077 18.6389 65.0539 18.5635C65.1772 18.5334 65.2619 18.4731 65.3082 18.3827C65.3698 18.2923 65.47 18.2471 65.6087 18.2471C65.6395 18.0814 65.7242 17.9608 65.8629 17.8855C66.0016 17.7951 66.0864 17.667 66.1172 17.5013C66.4254 17.3355 66.6951 17.1321 66.9262 16.891C67.1728 16.6499 67.3962 16.3938 67.5966 16.1226C67.8123 15.8513 68.0126 15.5726 68.1976 15.2863C68.3825 14.9849 68.5751 14.6986 68.7755 14.4274V14.337C68.7755 14.0959 68.814 13.9 68.891 13.7494C68.9835 13.5987 69.0528 13.4179 69.0991 13.2069Z" fill="#666666"/>
<path d="M86.6538 10.9242C86.5613 11.0598 86.5074 11.2104 86.492 11.3762C86.4765 11.5419 86.4688 11.6926 86.4688 11.8282C86.4688 12.009 86.4688 12.1899 86.4688 12.3707C86.4842 12.5364 86.492 12.7022 86.492 12.8679V13.2069C86.4611 13.3124 86.4149 13.4179 86.3533 13.5234C86.2916 13.6288 86.2454 13.7343 86.2146 13.8398C85.9988 14.3973 85.891 14.9548 85.891 15.5123V15.5575C85.8139 15.7383 85.7369 15.9041 85.6598 16.0547C85.5982 16.2054 85.5365 16.3561 85.4749 16.5068C85.4132 16.6424 85.367 16.7931 85.3362 16.9588C85.3054 17.1095 85.2977 17.2903 85.3131 17.5013C85.0973 18.0286 84.8122 18.5108 84.4578 18.9478C84.1034 19.3697 83.7566 19.8066 83.4176 20.2587C83.094 20.3792 82.7935 20.5374 82.5161 20.7333C82.2541 20.9292 81.9999 21.1477 81.7533 21.3887C81.2756 21.5394 80.8056 21.7127 80.3433 21.9086C79.881 22.1045 79.4649 22.3682 79.0951 22.6996C78.8023 22.7298 78.5095 22.775 78.2167 22.8353C77.9239 22.8955 77.6388 22.9859 77.3614 23.1065H77.084C76.9453 23.1065 76.8452 23.0763 76.7835 23.0161C76.5832 23.1215 76.3752 23.1969 76.1594 23.2421C75.9437 23.2722 75.7279 23.2873 75.5122 23.2873C75.2348 23.2873 74.9574 23.2722 74.68 23.2421C74.4181 23.1969 74.1484 23.1517 73.871 23.1065C73.7169 22.8955 73.5011 22.7373 73.2238 22.6318C72.9464 22.5113 72.6998 22.3983 72.4841 22.2928C72.0372 21.6901 71.7136 21.11 71.5132 20.5525C71.3129 19.9799 71.1049 19.3395 70.8891 18.6313C70.9199 18.4204 70.9739 18.217 71.0509 18.0211C71.128 17.8101 71.1588 17.5841 71.1434 17.343C71.4208 16.5595 71.7829 15.8513 72.2298 15.2185C72.6921 14.5706 73.2161 13.9528 73.8016 13.3651C73.8016 13.2747 73.8171 13.1994 73.8479 13.1391C73.8941 13.0789 73.9018 12.9884 73.871 12.8679C73.8864 12.883 73.9172 12.8905 73.9635 12.8905C74.0867 12.8905 74.1638 12.8604 74.1946 12.8001C74.2254 12.7248 74.2331 12.6419 74.2177 12.5515C74.7725 12.2049 75.2733 11.8056 75.7202 11.3536C76.1825 10.9016 76.7065 10.5249 77.2921 10.2235C77.3383 10.0879 77.4153 9.97489 77.5232 9.88448C77.6311 9.79407 77.7158 9.6886 77.7775 9.56806C78.2706 9.43245 78.7175 9.22903 79.1182 8.95781C79.5188 8.68659 79.9426 8.4455 80.3895 8.23456C80.6361 8.09895 80.8672 8.00854 81.083 7.96333C81.3141 7.90306 81.5607 7.84279 81.8227 7.78252C81.9151 7.75239 81.9999 7.72978 82.0769 7.71472C82.154 7.69965 82.2387 7.69211 82.3312 7.69211C82.6086 7.69211 82.8783 7.74485 83.1402 7.85033C83.4022 7.94073 83.6719 7.98594 83.9493 7.98594C84.0263 7.98594 84.088 7.98594 84.1342 7.98594C84.1958 7.97087 84.2575 7.9558 84.3191 7.94073C84.5811 8.25716 84.9124 8.49824 85.3131 8.66399C85.4055 8.89 85.5134 9.08589 85.6367 9.25163C85.7754 9.41738 85.9141 9.58312 86.0528 9.74887C86.1915 9.89955 86.3147 10.0728 86.4226 10.2687C86.5459 10.4495 86.6229 10.668 86.6538 10.9242ZM84.3422 12.0994C84.3422 12.0241 84.3345 11.9563 84.3191 11.896C84.165 11.8508 84.0186 11.7906 83.8799 11.7152C83.7412 11.6399 83.5871 11.6022 83.4176 11.6022C83.3097 11.6022 83.2019 11.6248 83.094 11.67C83.0786 11.5645 83.0324 11.4892 82.9553 11.444C82.8937 11.3988 82.8166 11.3611 82.7242 11.331C82.6471 11.2858 82.5623 11.2557 82.4699 11.2406C82.3928 11.2104 82.3235 11.1652 82.2619 11.105C82.2156 10.9844 82.1617 10.8639 82.1 10.7433C82.0538 10.6077 81.9614 10.5098 81.8227 10.4495C81.684 10.5851 81.5222 10.6981 81.3372 10.7885C81.1523 10.8639 80.9597 10.9392 80.7594 11.0146C80.5744 11.0899 80.3895 11.1803 80.2046 11.2858C80.0351 11.3913 79.8887 11.5193 79.7654 11.67H79.3493C79.2569 11.8358 79.1259 11.9638 78.9564 12.0542C78.7868 12.1296 78.6405 12.2426 78.5172 12.3933C78.2706 12.5138 78.0395 12.6645 77.8237 12.8453C77.6234 13.011 77.423 13.1919 77.2227 13.3877C77.0224 13.5686 76.822 13.7569 76.6217 13.9528C76.4368 14.1487 76.2365 14.3295 76.0207 14.4952C75.8204 14.9171 75.5969 15.2863 75.3504 15.6027C75.1192 15.9041 74.8958 16.213 74.68 16.5294C74.4797 16.8458 74.3025 17.1924 74.1484 17.5691C74.0097 17.9307 73.9403 18.3827 73.9403 18.9252V19.1512C73.9403 19.2265 73.948 19.3019 73.9635 19.3772C74.1638 19.5881 74.3256 19.8142 74.4489 20.0552C74.5876 20.2963 74.811 20.4696 75.1192 20.5751C75.4274 20.6956 75.751 20.7484 76.0901 20.7333C76.4445 20.7182 76.7835 20.7559 77.1071 20.8463C77.8468 20.7107 78.5557 20.4922 79.2337 20.1909C79.9272 19.8744 80.5821 19.4977 81.1985 19.0608C81.291 18.9854 81.3989 18.9101 81.5222 18.8348C81.6454 18.7443 81.7456 18.6539 81.8227 18.5635C81.8997 18.4882 81.9614 18.4053 82.0076 18.3149C82.0692 18.2245 82.1309 18.1416 82.1925 18.0663C82.3158 17.8704 82.4545 17.6745 82.6086 17.4787C82.7627 17.2828 82.9245 17.102 83.094 16.9362C83.1711 16.6047 83.2712 16.2883 83.3945 15.9869C83.5178 15.6705 83.6411 15.3616 83.7643 15.0603C83.8876 14.7589 83.9878 14.45 84.0648 14.1336C84.1573 13.8172 84.2035 13.4857 84.2035 13.1391C84.2035 13.0638 84.1958 12.9809 84.1804 12.8905C84.1804 12.8001 84.1727 12.7172 84.1573 12.6419C84.2806 12.4761 84.3422 12.2953 84.3422 12.0994Z" fill="#666666"/>
<path d="M110.319 22.1572C110.242 22.3983 110.219 22.6394 110.25 22.8805C110.204 22.9407 110.15 22.9784 110.088 22.9935C110.026 23.0085 109.965 23.0311 109.903 23.0613C109.841 23.0763 109.788 23.1065 109.741 23.1517C109.71 23.1818 109.71 23.2496 109.741 23.3551C109.233 23.3852 108.67 22.4962 108.207 22.677C107.745 22.8579 107.29 23.0537 106.844 23.2647C106.612 23.1894 106.412 23.0989 106.243 22.9935C106.073 22.888 105.857 22.8202 105.595 22.7901C105.333 22.2777 105.087 21.7428 104.856 21.1853C104.64 20.6128 104.532 20.0402 104.532 19.4676C104.532 19.0457 104.609 18.6615 104.763 18.3149C104.763 17.8629 104.802 17.4184 104.879 16.9814C104.956 16.5444 105.041 16.115 105.133 15.6931C105.241 15.2562 105.333 14.8192 105.41 14.3822C105.488 13.9453 105.526 13.5008 105.526 13.0487V12.5515C105.495 12.5515 105.457 12.5892 105.41 12.6645C105.364 12.7248 105.318 12.8001 105.272 12.8905C105.241 12.9658 105.21 13.0412 105.179 13.1165C105.148 13.1919 105.125 13.2371 105.11 13.2521C104.848 13.448 104.64 13.6966 104.486 13.998C104.347 14.2843 104.193 14.5555 104.024 14.8117C103.808 15.1281 103.577 15.437 103.33 15.7383C103.099 16.0397 102.806 16.2732 102.452 16.439V16.4842C102.452 16.5595 102.429 16.6123 102.382 16.6424C102.336 16.6725 102.328 16.7479 102.359 16.8684C101.974 16.9889 101.612 17.1622 101.273 17.3882C100.949 17.6143 100.68 17.9006 100.464 18.2471C100.156 18.3224 99.8628 18.4279 99.5854 18.5635C99.3234 18.6841 99.0537 18.8197 98.7764 18.9704C98.6531 19.0306 98.5221 19.106 98.3834 19.1964C98.2447 19.2868 98.106 19.3471 97.9673 19.3772C97.844 19.4224 97.6745 19.4525 97.4588 19.4676C97.2585 19.4827 97.0427 19.4977 96.8116 19.5128C96.5958 19.5279 96.3801 19.5354 96.1643 19.5354H95.6558C95.5787 19.5354 95.4786 19.4977 95.3553 19.4224C95.232 19.3471 95.0933 19.2642 94.9392 19.1738C94.8005 19.0834 94.6541 19.0005 94.5 18.9252C94.3459 18.8348 94.1995 18.7745 94.0608 18.7443C93.9375 18.3526 93.7603 18.006 93.5292 17.7047C93.3134 17.3882 93.0823 17.0718 92.8357 16.7554C92.7587 16.3938 92.6508 16.0171 92.5121 15.6253C92.3888 15.2335 92.1654 14.9096 91.8418 14.6534C91.9188 14.548 91.9573 14.4274 91.9573 14.2918C91.9573 14.1261 91.9188 13.9679 91.8418 13.8172C91.7647 13.6665 91.7262 13.5008 91.7262 13.3199C91.7262 13.1994 91.7339 13.109 91.7493 13.0487C91.5798 13.2295 91.4565 13.4631 91.3795 13.7494C91.3178 14.0206 91.287 14.2692 91.287 14.4952C91.287 14.676 91.3101 14.8418 91.3563 14.9925C91.2022 15.2034 91.1021 15.4671 91.0558 15.7835C91.025 16.0999 91.0096 16.3787 91.0096 16.6198C91.0096 16.9211 91.0327 17.215 91.079 17.5013C90.8324 17.7423 90.7091 18.0362 90.7091 18.3827C90.7091 18.5786 90.7553 18.7519 90.8478 18.9026C90.8478 18.9628 90.8324 19.008 90.8016 19.0382C90.7707 19.0683 90.7322 19.0909 90.686 19.106C90.6552 19.121 90.6166 19.1436 90.5704 19.1738C90.5396 19.1888 90.5242 19.2265 90.5242 19.2868C90.5242 19.3621 90.5242 19.445 90.5242 19.5354C90.5396 19.6258 90.5473 19.7162 90.5473 19.8066C90.5473 20.0176 90.5396 20.2361 90.5242 20.4621C90.5088 20.6881 90.5011 20.9066 90.5011 21.1175C90.5011 21.5545 90.5396 21.8709 90.6166 22.0668C90.7091 22.2476 90.817 22.3832 90.9403 22.4736C91.079 22.564 91.2254 22.6544 91.3795 22.7449C91.5336 22.8353 91.6877 23.0085 91.8418 23.2647C91.7955 23.4003 91.7108 23.5133 91.5875 23.6037C91.4796 23.6791 91.3717 23.7619 91.2639 23.8523C91.1714 23.9277 91.0867 24.0181 91.0096 24.1236C90.9326 24.229 90.9017 24.3797 90.9171 24.5756H90.8016C90.6012 24.5756 90.4086 24.6057 90.2237 24.666C90.0388 24.7263 89.8461 24.7564 89.6458 24.7564C89.5996 24.7564 89.5533 24.7489 89.5071 24.7338C89.4609 24.7338 89.4147 24.7338 89.3684 24.7338L89.1373 24.5982C89.0602 24.553 88.9832 24.5304 88.9061 24.5304C88.8291 24.5304 88.7289 24.5455 88.6056 24.5756C88.3899 23.8975 88.2204 23.1969 88.0971 22.4736C87.9892 21.7504 87.9353 21.0422 87.9353 20.3491C87.9353 20.2737 87.9507 20.1984 87.9815 20.1231C88.0277 20.0326 88.0894 20.0025 88.1664 20.0326V19.6032C88.1664 19.1361 88.205 18.6841 88.282 18.2471C88.3745 17.7951 88.4207 17.328 88.4207 16.8458C88.4207 16.7102 88.413 16.5746 88.3976 16.439C88.3976 16.3034 88.3899 16.1753 88.3745 16.0547C88.4515 15.7986 88.5286 15.5424 88.6056 15.2863C88.6981 15.0151 88.7443 14.7363 88.7443 14.45C88.7443 14.3295 88.7212 14.1863 88.675 14.0206C88.7982 13.9302 88.8907 13.8172 88.9523 13.6816C89.014 13.5309 89.0602 13.3727 89.091 13.2069C89.1219 13.0261 89.145 12.8528 89.1604 12.6871C89.1758 12.5213 89.1912 12.3707 89.2066 12.2351C89.3607 11.9337 89.4455 11.6097 89.4609 11.2632C89.4763 10.9166 89.5533 10.5927 89.692 10.2913C89.6766 10.231 89.6689 10.1256 89.6689 9.97489C89.6689 9.67353 89.7152 9.37217 89.8076 9.07082C89.9155 8.75439 90.1235 8.51331 90.4317 8.34756C90.7091 8.45304 91.0327 8.50578 91.4026 8.50578C91.757 8.50578 92.096 8.45304 92.4196 8.34756C92.5121 8.3777 92.5969 8.41537 92.6739 8.46057C92.751 8.49071 92.828 8.52838 92.9051 8.57358C92.9975 8.60372 93.09 8.63385 93.1824 8.66399C93.2749 8.67906 93.3828 8.67906 93.5061 8.66399C93.6602 9.10095 93.7912 9.54545 93.899 9.99749C94.0223 10.4495 94.1148 10.9091 94.1764 11.3762C94.2072 11.5721 94.2149 11.783 94.1995 12.009C94.1995 12.2351 94.2149 12.446 94.2458 12.6419C94.2612 12.7624 94.2997 12.8754 94.3613 12.9809C94.423 13.0713 94.4846 13.1768 94.5463 13.2973C94.6079 13.4179 94.6541 13.5535 94.6849 13.7042C94.7312 13.8548 94.7466 14.0432 94.7312 14.2692C94.9007 14.661 95.0856 15.0377 95.2859 15.3993C95.5017 15.7459 95.7328 16.0924 95.9794 16.439C96.1181 16.4842 96.2414 16.5444 96.3493 16.6198C96.4571 16.6801 96.5265 16.7855 96.5573 16.9362C96.696 16.9362 96.8193 16.9588 96.9271 17.004L97.3201 17.117C97.9057 16.9362 98.445 16.6951 98.9382 16.3938C99.4467 16.0924 99.9784 15.8363 100.533 15.6253C101.211 14.9774 101.797 14.2617 102.29 13.4782C102.783 12.6796 103.276 11.8885 103.769 11.105V10.6077C103.862 10.5625 103.939 10.5098 104 10.4495C104.077 10.3742 104.17 10.3214 104.278 10.2913C104.293 10.1105 104.332 9.93722 104.393 9.77147C104.47 9.59066 104.547 9.42491 104.625 9.27423C104.717 9.10849 104.794 8.95028 104.856 8.7996C104.917 8.63385 104.948 8.46057 104.948 8.27976C104.948 8.17428 104.94 8.08388 104.925 8.00854C105.156 7.78252 105.434 7.66951 105.757 7.66951C106.065 7.66951 106.374 7.74485 106.682 7.89553C107.005 8.03114 107.306 8.15922 107.583 8.27976C107.753 8.64139 107.876 9.02562 107.953 9.43245C108.046 9.82421 108.107 10.231 108.138 10.6529C108.169 11.0748 108.184 11.4967 108.184 11.9186V13.5234C108.169 13.6439 108.123 13.7343 108.046 13.7946C107.984 13.8398 107.938 13.9151 107.907 14.0206V14.2466C107.907 14.3219 107.899 14.3973 107.884 14.4726C107.884 14.789 107.845 15.1205 107.768 15.4671C107.691 15.9041 107.591 16.3486 107.468 16.8006C107.36 17.2376 107.306 17.6821 107.306 18.1341C107.306 18.2998 107.314 18.4656 107.329 18.6313C107.344 18.7971 107.375 18.9628 107.421 19.1286C107.344 19.2642 107.306 19.4375 107.306 19.6484C107.306 19.8895 107.344 20.1155 107.421 20.3265C107.514 20.5223 107.622 20.7182 107.745 20.9141C107.961 20.9141 108.177 20.9066 108.392 20.8915C108.608 20.8764 108.832 20.8689 109.063 20.8689C109.356 21.8634 109.556 21.886 109.741 21.9312C109.926 21.9613 110.119 22.0367 110.319 22.1572Z" fill="#666666"/>
<path d="M126.941 17.2978C126.787 17.3129 126.648 17.3506 126.525 17.4108C126.417 17.4711 126.301 17.5163 126.178 17.5465C126.194 17.5615 126.201 17.5841 126.201 17.6143C126.201 17.7047 126.178 17.7725 126.132 17.8177C126.086 17.8478 126.078 17.9232 126.109 18.0437C125.878 18.1642 125.639 18.2546 125.392 18.3149C125.146 18.3752 124.891 18.4279 124.629 18.4731C124.383 18.5183 124.136 18.5711 123.89 18.6313C123.643 18.6916 123.412 18.7896 123.196 18.9252V18.6765C123.011 18.782 122.834 18.8348 122.665 18.8348C122.511 18.8348 122.364 18.8122 122.225 18.767C122.087 18.7067 121.933 18.6765 121.763 18.6765C121.686 18.6765 121.586 18.7067 121.463 18.767C121.309 18.7519 121.185 18.7142 121.093 18.6539C121.016 18.5786 120.916 18.5033 120.792 18.4279C120.715 18.5786 120.6 18.6765 120.446 18.7217C120.307 18.7519 120.176 18.767 120.053 18.767C119.883 18.767 119.721 18.7594 119.567 18.7443C119.429 18.7293 119.29 18.7067 119.151 18.6765C118.905 18.7519 118.673 18.7971 118.458 18.8122C118.242 18.8122 118.011 18.8122 117.764 18.8122C117.548 18.8122 117.34 18.8272 117.14 18.8574C116.955 18.8724 116.763 18.9252 116.562 19.0156C116.501 18.8649 116.37 18.7896 116.169 18.7896C116.077 18.7896 115.977 18.7971 115.869 18.8122C115.776 18.8122 115.684 18.8122 115.591 18.8122C115.437 18.8122 115.322 18.767 115.245 18.6765C115.183 18.7067 115.152 18.7594 115.152 18.8348C115.168 18.9101 115.168 18.9704 115.152 19.0156C114.921 18.9252 114.674 18.88 114.412 18.88C114.197 18.88 113.989 18.9026 113.788 18.9478C113.588 18.993 113.388 19.0156 113.187 19.0156C113.079 19.0156 112.972 19.0005 112.864 18.9704C112.756 18.9402 112.663 18.9252 112.586 18.9252C112.494 18.9252 112.425 18.9478 112.378 18.993C112.332 19.0231 112.286 19.0608 112.24 19.106C112.209 19.1361 112.163 19.1738 112.101 19.219C112.055 19.2491 111.985 19.2642 111.893 19.2642C111.723 19.2642 111.608 19.219 111.546 19.1286C111.485 19.0231 111.392 18.9553 111.269 18.9252C111.269 18.7745 111.246 18.6389 111.199 18.5183C111.153 18.3978 111.099 18.2772 111.038 18.1567C110.976 18.0211 110.922 17.893 110.876 17.7725C110.83 17.6519 110.806 17.5163 110.806 17.3656C110.806 17.3204 110.806 17.2752 110.806 17.23C110.822 17.1698 110.83 17.117 110.83 17.0718C111.045 16.7705 111.354 16.5595 111.754 16.439C112.17 16.3034 112.548 16.2356 112.887 16.2356C113.056 16.2356 113.18 16.2657 113.257 16.326C113.349 16.3862 113.457 16.4691 113.58 16.5746C114.659 16.454 115.738 16.3712 116.816 16.326C117.911 16.2808 118.997 16.228 120.076 16.1678C120.43 16.1376 120.785 16.115 121.139 16.0999C121.493 16.0698 121.848 16.0397 122.202 16.0095C122.249 16.0095 122.279 15.9945 122.295 15.9643C122.31 15.9191 122.318 15.8739 122.318 15.8287C122.333 15.7835 122.349 15.7459 122.364 15.7157C122.395 15.6856 122.441 15.6705 122.503 15.6705C122.672 15.6705 122.788 15.7233 122.85 15.8287C122.911 15.9191 123.004 15.9794 123.127 16.0095C123.235 15.9493 123.358 15.9041 123.497 15.8739C123.651 15.8438 123.797 15.8212 123.936 15.8061C124.075 15.776 124.206 15.7459 124.329 15.7157C124.468 15.6705 124.583 15.6027 124.676 15.5123C124.799 15.4972 124.868 15.5274 124.884 15.6027C124.899 15.663 124.945 15.7082 125.022 15.7383C125.099 15.7233 125.184 15.7082 125.277 15.6931C125.369 15.663 125.454 15.6479 125.531 15.6479H125.693C125.754 15.6479 125.808 15.6554 125.855 15.6705C125.993 15.9719 126.17 16.2431 126.386 16.4842C126.617 16.7253 126.802 16.9965 126.941 17.2978Z" fill="#666666"/>
<path d="M161 29.0733C161 29.2391 160.961 29.3973 160.884 29.548C160.576 29.7137 160.253 29.8267 159.914 29.887C159.59 29.9623 159.266 30 158.943 30C158.789 30 158.619 29.9925 158.434 29.9774C158.265 29.9774 158.111 29.9623 157.972 29.9322C157.926 29.9171 157.872 29.887 157.81 29.8418C157.748 29.7966 157.687 29.774 157.625 29.774C157.471 29.774 157.325 29.7966 157.186 29.8418C157.047 29.9021 156.901 29.9322 156.747 29.9322C156.67 29.9322 156.593 29.9096 156.516 29.8644C156.454 29.8192 156.385 29.7891 156.308 29.774C156.2 29.7438 156.092 29.7363 155.984 29.7514C155.876 29.7664 155.761 29.774 155.637 29.774C155.468 29.774 155.314 29.7514 155.175 29.7062C155.052 29.661 154.936 29.5781 154.828 29.4576C154.443 29.4124 154.065 29.337 153.696 29.2315C153.326 29.1411 152.956 29.0357 152.586 28.9151C152.216 28.8096 151.846 28.7042 151.476 28.5987C151.107 28.5083 150.729 28.448 150.344 28.4179C150.251 28.3124 150.144 28.2295 150.02 28.1693C149.897 28.1241 149.804 28.0412 149.743 27.9206C149.666 27.9206 149.612 27.9282 149.581 27.9432C149.55 27.9734 149.496 27.9884 149.419 27.9884C149.157 27.7775 148.872 27.5967 148.564 27.446C148.271 27.2953 147.963 27.1522 147.639 27.0166C147.331 26.881 147.023 26.7378 146.715 26.5871C146.422 26.4515 146.145 26.2707 145.883 26.0447H145.767C145.644 26.0598 145.536 26.0296 145.443 25.9543C145.366 25.894 145.266 25.8639 145.143 25.8639C145.066 25.8639 145.004 25.8714 144.958 25.8865C144.912 25.7659 144.842 25.668 144.75 25.5927C144.657 25.5173 144.557 25.442 144.449 25.3666C144.357 25.3064 144.265 25.2386 144.172 25.1632C144.08 25.103 144.01 25.0201 143.964 24.9146C143.579 24.779 143.201 24.6133 142.831 24.4174C142.477 24.2366 142.161 23.9955 141.884 23.6941C141.575 23.664 141.321 23.5736 141.121 23.4229C140.921 23.2572 140.736 23.0537 140.566 22.8127C140.196 22.6921 139.857 22.5339 139.549 22.338C139.241 22.1421 138.933 21.9387 138.624 21.7278C138.332 21.5168 138.016 21.3285 137.677 21.1627C137.353 20.9819 136.983 20.8538 136.567 20.7785C136.552 20.673 136.505 20.5977 136.428 20.5525C136.351 20.4922 136.259 20.447 136.151 20.4169C136.059 20.3717 135.966 20.334 135.874 20.3039C135.781 20.2737 135.712 20.2135 135.666 20.1231C135.619 20.1231 135.573 20.1231 135.527 20.1231C135.481 20.108 135.434 20.1005 135.388 20.1005C135.342 20.1005 135.288 20.108 135.226 20.1231C135.18 20.1231 135.134 20.1231 135.088 20.1231L135.111 20.0552C135.111 19.995 135.088 19.9573 135.042 19.9422C135.011 19.9272 134.964 19.9121 134.903 19.897C134.841 19.882 134.787 19.8594 134.741 19.8292C134.695 19.7991 134.672 19.7313 134.672 19.6258H134.602C134.433 19.6258 134.279 19.5957 134.14 19.5354C134.001 19.4751 133.847 19.4299 133.678 19.3998C133.647 19.5655 133.631 19.7238 133.631 19.8744V20.2813C133.631 20.9593 133.709 21.675 133.863 22.4284C134.017 23.1667 134.256 23.8297 134.579 24.4174C134.903 24.5379 135.18 24.6961 135.411 24.892C135.643 25.0879 135.866 25.3139 136.082 25.5701C136.097 25.9769 135.943 26.3159 135.619 26.5871C135.311 26.8734 134.949 27.0166 134.533 27.0166C134.302 27.0166 134.086 26.9563 133.886 26.8358C133.701 26.7303 133.547 26.5721 133.423 26.3611C133.331 26.3611 133.246 26.3762 133.169 26.4063C133.092 26.4515 133 26.4741 132.892 26.4741C132.846 26.4741 132.799 26.4666 132.753 26.4515C132.599 26.1954 132.445 25.9694 132.291 25.7735C132.152 25.5776 132.06 25.3139 132.013 24.9824C131.844 24.9071 131.736 24.7715 131.69 24.5756C131.659 24.3797 131.574 24.2215 131.436 24.101C131.374 23.4229 131.289 22.7449 131.181 22.0668C131.089 21.3887 131.043 20.7107 131.043 20.0326C131.043 19.882 131.05 19.7313 131.066 19.5806C131.081 19.4149 131.096 19.2491 131.112 19.0834C131.081 19.008 131.035 18.9402 130.973 18.88C130.927 18.8046 130.888 18.7293 130.858 18.6539C130.549 18.7293 130.226 18.8046 129.887 18.88C129.563 18.9402 129.232 18.9704 128.893 18.9704C128.677 18.9704 128.415 18.9402 128.107 18.88C127.799 18.8046 127.56 18.7067 127.39 18.5861C127.267 18.5108 127.182 18.3752 127.136 18.1793C127.074 17.9684 127.044 17.7875 127.044 17.6369C127.044 17.3807 127.09 17.1246 127.182 16.8684C127.275 16.5972 127.398 16.3636 127.552 16.1678C128.307 15.8664 129.008 15.4972 129.656 15.0603C130.318 14.6233 130.966 14.1487 131.597 13.6364C131.613 13.4857 131.636 13.335 131.667 13.1843C131.713 13.0337 131.736 12.8754 131.736 12.7097C131.736 12.5289 131.69 12.3556 131.597 12.1899C131.69 12.0994 131.736 11.9864 131.736 11.8508C131.736 11.7001 131.775 11.5645 131.852 11.444V11.3084C131.852 11.2481 131.844 11.1878 131.828 11.1276C131.828 11.0673 131.805 11.007 131.759 10.9468C131.867 10.3591 131.952 9.77901 132.013 9.20643C132.075 8.61878 132.106 8.01607 132.106 7.39829C132.106 7.35309 132.129 7.23255 132.175 7.03666C132.237 6.82572 132.275 6.68257 132.291 6.60723C132.352 6.26067 132.391 5.92165 132.406 5.59016C132.437 5.2436 132.476 4.89704 132.522 4.55048C132.537 4.42993 131.757 4.4224 131.804 4.22652C131.85 4.03064 131.873 3.89503 131.873 3.81969C131.873 3.71421 131.85 3.64641 131.804 3.61627C131.773 3.57107 131.742 3.50326 131.711 3.41286C131.804 3.0663 132.661 2.56906 132.661 2.2225C132.676 1.86087 132.707 1.50678 132.753 1.16022C133.015 1.05475 133.223 0.949272 133.377 0.843797C133.531 0.738322 133.755 0.685585 134.048 0.685585H134.094C134.125 0.866399 134.194 1.03968 134.302 1.20542C134.41 1.3561 134.518 1.51431 134.625 1.68006C134.749 1.83074 134.857 1.98142 134.949 2.13209C135.042 2.2677 135.088 2.40331 135.088 2.53893C135.088 2.79508 135.065 3.07383 135.018 3.37519C134.972 3.67654 134.934 3.9553 134.903 4.21145C134.826 4.8895 134.756 5.56002 134.695 6.223C134.633 6.87092 134.541 7.5339 134.417 8.21195C134.464 8.4229 134.487 8.61878 134.487 8.7996C134.487 9.07082 134.464 9.34204 134.417 9.61326C134.371 9.88448 134.348 10.1632 134.348 10.4495C134.348 10.5851 134.356 10.7283 134.371 10.879C134.402 11.0296 134.448 11.1652 134.51 11.2858C135.034 11.1502 135.504 10.8714 135.92 10.4495C135.982 10.3893 136.043 10.3139 136.105 10.2235C136.182 10.118 136.259 10.0352 136.336 9.97489C136.49 9.85434 136.652 9.74887 136.821 9.65846C137.006 9.55299 137.184 9.44751 137.353 9.34204C137.754 9.08589 138.139 8.8222 138.509 8.55098C138.894 8.26469 139.279 7.98594 139.665 7.71472C140.805 6.90105 141.907 6.05726 142.97 5.18332C144.049 4.29432 145.097 3.36012 146.114 2.38071C146.16 2.12456 146.252 1.92115 146.391 1.77047C146.53 1.61979 146.653 1.43898 146.761 1.22803C147.054 1.12255 147.308 0.964339 147.524 0.75339C147.616 0.783526 147.709 0.806128 147.801 0.821195C147.909 0.821195 148.009 0.821195 148.102 0.821195C148.21 0.821195 148.31 0.828729 148.402 0.843797C148.51 0.843797 148.602 0.866399 148.68 0.911602C148.695 1.13762 148.718 1.34103 148.749 1.52185C148.78 1.70266 148.872 1.87594 149.026 2.04169C149.026 2.07182 149.026 2.10196 149.026 2.13209C149.042 2.16223 149.049 2.19237 149.049 2.2225C149.049 2.38825 149.003 2.52386 148.911 2.62933C148.818 2.73481 148.764 2.86288 148.749 3.01356L147.547 4.18885C147.146 4.58061 146.776 5.00251 146.437 5.45455C146.314 5.46961 146.206 5.50728 146.114 5.56755C146.021 5.62782 145.929 5.69563 145.836 5.77097C145.759 5.83124 145.675 5.89151 145.582 5.95178C145.49 6.01205 145.389 6.05726 145.282 6.08739C145.004 6.44902 144.688 6.78051 144.334 7.08187C143.979 7.36816 143.617 7.64691 143.247 7.91813C142.878 8.18935 142.508 8.46811 142.138 8.75439C141.783 9.02562 141.452 9.32697 141.144 9.65846C140.82 9.80914 140.504 9.98995 140.196 10.2009C139.903 10.3968 139.665 10.6454 139.48 10.9468H139.364C139.287 10.9468 139.225 10.9694 139.179 11.0146C139.133 11.0447 139.071 11.0598 138.994 11.0598C138.162 11.768 137.299 12.4385 136.405 13.0713C135.512 13.6891 134.656 14.3672 133.84 15.1055V15.6705C134.101 15.8212 134.387 15.9643 134.695 16.0999C135.003 16.2205 135.303 16.3561 135.596 16.5068C135.904 16.6575 136.19 16.8232 136.452 17.004C136.729 17.1698 136.968 17.3732 137.168 17.6143C137.199 17.5992 137.237 17.5917 137.284 17.5917C137.422 17.5917 137.53 17.6369 137.607 17.7273C137.684 17.8026 137.815 17.8252 138 17.7951C138.062 18.0362 138.201 18.2094 138.416 18.3149C138.632 18.4204 138.848 18.5108 139.064 18.5861C139.248 18.767 139.418 18.9402 139.572 19.106C139.726 19.2567 139.95 19.3546 140.242 19.3998C140.273 19.4601 140.296 19.5279 140.312 19.6032C140.327 19.6786 140.358 19.7464 140.404 19.8066C140.697 19.897 140.974 20.0251 141.236 20.1909C141.514 20.3566 141.783 20.5299 142.045 20.7107C142.307 20.8764 142.569 21.0422 142.831 21.2079C143.109 21.3586 143.402 21.4792 143.71 21.5696C143.756 21.7202 143.841 21.8257 143.964 21.886C144.103 21.9463 144.211 22.0367 144.288 22.1572H144.704C144.75 22.2325 144.812 22.3079 144.889 22.3832C144.966 22.4435 145.02 22.5339 145.05 22.6544C145.174 22.6846 145.312 22.7298 145.467 22.7901C145.621 22.8353 145.759 22.8955 145.883 22.9709C145.929 23.0161 145.96 23.0688 145.975 23.1291C146.006 23.1894 146.052 23.2421 146.114 23.2873C146.206 23.3626 146.345 23.4229 146.53 23.4681C146.73 23.4982 146.9 23.551 147.038 23.6263C147.316 23.777 147.585 23.9427 147.847 24.1236C148.109 24.3194 148.387 24.5003 148.68 24.666L149.581 25.1406C149.735 25.216 149.874 25.2988 149.997 25.3893C150.136 25.4797 150.274 25.5625 150.413 25.6379C150.691 25.7584 150.983 25.8338 151.292 25.8639C151.615 25.9091 151.908 25.992 152.17 26.1125C152.247 26.1577 152.301 26.2104 152.332 26.2707C152.363 26.3461 152.417 26.4063 152.494 26.4515C152.617 26.5269 152.809 26.5796 153.071 26.6097C153.333 26.6399 153.549 26.6926 153.719 26.768C153.934 26.8584 154.142 26.9412 154.343 27.0166C154.559 27.107 154.774 27.2125 154.99 27.333C155.452 27.3631 155.907 27.4159 156.354 27.4912C156.816 27.5665 157.271 27.6419 157.718 27.7172C158.165 27.7926 158.611 27.8604 159.058 27.9206C159.521 27.9809 159.983 28.0035 160.445 27.9884C160.445 28.0186 160.461 28.0337 160.491 28.0337C160.538 28.0487 160.576 28.0563 160.607 28.0563C160.715 28.222 160.807 28.3877 160.884 28.5535C160.961 28.7192 161 28.8925 161 29.0733Z" fill="#666666"/>
</svg>
