<svg width="160" height="30" viewBox="0 0 160 30" fill="none" xmlns="http://www.w3.org/2000/svg">
<path d="M25.7283 10.7433C25.7283 10.9844 25.6824 11.233 25.5905 11.4892C25.5139 11.7454 25.4144 11.9789 25.2919 12.1899C25.0928 12.22 24.909 12.2878 24.7406 12.3933C24.5874 12.4987 24.4649 12.5665 24.373 12.5967C24.1739 12.6268 23.9366 12.6419 23.6609 12.6419C23.4005 12.6268 23.1632 12.6268 22.9488 12.6419C22.5353 12.672 22.1218 12.7172 21.7083 12.7775C21.3101 12.8378 20.9119 12.9131 20.5138 13.0035C20.4831 13.0035 20.4525 13.011 20.4219 13.0261C20.3912 13.0261 20.3759 13.0412 20.3759 13.0713C20.3759 13.1015 20.3836 13.1316 20.3989 13.1617C20.4142 13.1919 20.4219 13.222 20.4219 13.2521C20.4219 13.2973 20.3759 13.3199 20.284 13.3199C20.1156 13.3199 20.0007 13.2672 19.9395 13.1617C19.4494 13.2823 18.9593 13.4103 18.4693 13.546C17.9792 13.6665 17.4891 13.787 16.9991 13.9076C16.7541 13.9528 16.509 13.998 16.264 14.0432C16.0343 14.0884 15.7969 14.1487 15.5519 14.224C15.4294 14.2541 15.3068 14.3069 15.1843 14.3822L14.8168 14.6082C14.7402 14.5932 14.6713 14.5856 14.61 14.5856C14.5488 14.5706 14.4875 14.563 14.4263 14.563C14.1659 14.563 13.8902 14.6158 13.5993 14.7212C13.3083 14.8117 13.0556 14.9397 12.8412 15.1055H12.6804C12.5273 15.1055 12.4201 15.0829 12.3588 15.0377C12.221 15.0226 12.1367 15.0678 12.1061 15.1733C12.0755 15.2637 12.0219 15.3466 11.9453 15.4219C11.4246 15.4671 10.9116 15.5575 10.4062 15.6931C9.90082 15.8287 9.4031 15.9794 8.91303 16.1452C8.42297 16.2958 7.92525 16.454 7.41987 16.6198C6.92981 16.7705 6.43209 16.891 5.92671 16.9814C5.86545 17.2828 5.83482 17.6293 5.83482 18.0211C5.83482 18.3225 5.85779 18.669 5.90374 19.0608C5.96499 19.4525 6.08751 19.784 6.27128 20.0552V20.1005C6.27128 20.1758 6.24066 20.2285 6.1794 20.2587C6.11814 20.2888 6.08751 20.3415 6.08751 20.4169C6.08751 20.8086 6.1258 21.1778 6.20237 21.5244C6.29426 21.8709 6.38614 22.2099 6.47803 22.5414C6.56992 22.8729 6.65415 23.2044 6.73072 23.5359C6.82261 23.8674 6.86855 24.2064 6.86855 24.553C6.86855 24.6434 6.86089 24.7263 6.84558 24.8016C6.84558 24.892 6.83792 24.9824 6.82261 25.0728C6.86855 25.2084 6.94512 25.3214 7.05232 25.4119C7.15952 25.5023 7.25141 25.6077 7.32798 25.7283C7.3433 25.8036 7.35096 25.8714 7.35096 25.9317V26.1577C7.35096 26.4139 7.32033 26.6399 7.25907 26.8358C7.19781 27.0316 7.12124 27.2125 7.02935 27.3782C6.93746 27.559 6.83792 27.7323 6.73072 27.898C6.62352 28.0789 6.52397 28.2747 6.43209 28.4857C6.27894 28.5158 6.15643 28.5309 6.06454 28.5309C5.83482 28.5309 5.64339 28.4706 5.49025 28.3501C5.35242 28.2295 5.2299 28.0789 5.1227 27.898C5.0155 27.7323 4.90829 27.559 4.80109 27.3782C4.70921 27.1974 4.59435 27.0467 4.45652 26.9262C4.47183 26.8508 4.47949 26.783 4.47949 26.7228C4.4948 26.6625 4.50246 26.5947 4.50246 26.5193C4.50246 26.218 4.44886 25.9242 4.34166 25.6379C4.24977 25.3516 4.14257 25.0804 4.02005 24.8242C4.00474 24.3119 3.95114 23.8071 3.85925 23.3099C3.76736 22.8127 3.63719 22.323 3.46873 21.8408C3.49936 21.66 3.52233 21.4867 3.53765 21.3209C3.55296 21.1401 3.56062 20.9669 3.56062 20.8011C3.56062 20.3641 3.53765 19.9272 3.4917 19.4902C3.44576 19.0532 3.4381 18.6163 3.46873 18.1793C3.42279 18.104 3.37685 18.0437 3.3309 17.9985C3.28496 17.9382 3.24667 17.8704 3.21604 17.7951H3.12416C2.89444 17.7951 2.67238 17.8177 2.45798 17.8629C2.24357 17.893 2.02917 17.9081 1.81477 17.9081C1.73819 17.9081 1.66928 17.9081 1.60802 17.9081C1.54676 17.893 0.604922 17.9382 0.52835 17.9232C0.359891 17.7574 0.229717 17.5691 0.13783 17.3581C0.0459435 17.1472 0 16.9287 0 16.7027C0 16.3712 0.091887 16.0698 0.275661 15.7986C0.658523 15.7082 1.90665 15.5424 2.2742 15.4219C2.65706 15.2863 3.02461 15.1281 3.37685 14.9473C3.42279 14.7212 3.44576 14.4952 3.44576 14.2692C3.46108 14.0432 3.54531 13.8322 3.69845 13.6364C3.65251 13.5158 3.57593 13.4103 3.46873 13.3199C3.37685 13.2145 3.3309 13.0939 3.3309 12.9583C3.3309 12.883 3.34622 12.785 3.37685 12.6645C3.52999 12.4987 3.63719 12.2878 3.69845 12.0316C3.75971 11.7755 3.81331 11.5043 3.85925 11.218C3.9052 10.9317 3.95114 10.6454 3.99708 10.3591C4.05834 10.0728 4.15788 9.81668 4.29571 9.59066C4.26509 9.47012 4.24211 9.34204 4.2268 9.20643C4.21149 9.05575 4.20383 8.92014 4.20383 8.7996C4.20383 8.61878 4.21149 8.43797 4.2268 8.25716C4.25743 8.06128 4.30337 7.88046 4.36463 7.71472C4.19617 7.51883 4.05834 7.29282 3.95114 7.03666C3.84394 6.76544 3.79034 6.50176 3.79034 6.24561C3.79034 5.74837 4.03537 5.43194 4.52543 5.29633C4.51012 5.23606 4.4948 5.18332 4.47949 5.13812C4.47949 5.09292 4.47949 5.04771 4.47949 5.00251C4.47949 4.8669 4.51778 4.73882 4.59435 4.61828C4.67092 4.49774 4.73218 4.3772 4.77812 4.25665C4.70155 4.06077 4.66326 3.89503 4.66326 3.75942C4.66326 3.63887 4.68623 3.5334 4.73218 3.44299C4.77812 3.33752 4.81641 3.22451 4.84704 3.10397C4.89298 2.95329 4.92361 2.81768 4.93892 2.69714C4.96955 2.57659 5.0155 2.47112 5.07675 2.38071C5.13801 2.29031 5.21458 2.2225 5.30647 2.1773C5.41367 2.13209 5.57448 2.10949 5.78888 2.10949C6.1258 2.10949 6.4474 2.21497 6.75369 2.42592C7.0753 2.6218 7.32033 2.84782 7.48879 3.10397C7.65725 3.0889 7.80273 3.05876 7.92525 3.01356C8.06308 2.95329 8.1856 2.90055 8.2928 2.85535C8.41531 2.81015 8.53783 2.77248 8.66035 2.74234C8.79818 2.69714 8.95898 2.68207 9.14275 2.69714C9.18869 2.59166 9.26527 2.52386 9.37247 2.49372C9.49498 2.44852 9.6175 2.41838 9.74002 2.40331C9.86253 2.37318 9.97739 2.33551 10.0846 2.29031C10.1918 2.2451 10.2607 2.16223 10.2913 2.04169C10.3526 2.08689 10.4215 2.10949 10.4981 2.10949C10.5747 2.10949 10.6512 2.10196 10.7278 2.08689C10.8044 2.05676 10.8886 2.04169 10.9805 2.04169C11.0724 2.04169 11.149 2.07182 11.2102 2.13209C11.6084 1.92115 12.0295 1.77047 12.4737 1.68006C12.9331 1.57459 13.3849 1.51431 13.829 1.49925C14.8857 0.92667 15.996 0.534907 17.1599 0.323958C18.3391 0.113009 19.5183 0.0075339 20.6975 0.0075339C20.866 0.0075339 21.0268 0.0075339 21.1799 0.0075339C21.3484 -0.0075339 21.5092 0 21.6623 0.0301356C21.8308 0.0602712 22.0146 0.113009 22.2137 0.188348C22.4281 0.263687 22.6348 0.354093 22.8339 0.459568C23.0483 0.565043 23.2474 0.685585 23.4312 0.821195C23.6149 0.941738 23.7681 1.05475 23.8906 1.16022C24.0131 1.43144 24.0744 1.69513 24.0744 1.95128C24.0744 2.07182 24.0667 2.19237 24.0514 2.31291C24.0361 2.41838 24.0284 2.53139 24.0284 2.65193C24.0284 2.83275 24.0667 3.03616 24.1433 3.26218C24.0974 3.24711 24.0208 3.23958 23.9136 3.23958C23.7757 3.23958 23.6609 3.26971 23.569 3.32998C23.4771 3.39026 23.3929 3.45806 23.3163 3.5334C23.2397 3.60874 23.1632 3.67654 23.0866 3.73682C23.0253 3.79709 22.9641 3.82722 22.9028 3.82722C22.7803 3.82722 22.6731 3.80462 22.5812 3.75942C22.5046 3.71421 22.4204 3.66901 22.3285 3.62381C22.252 3.56354 22.1677 3.51833 22.0758 3.4882C21.984 3.44299 21.8768 3.42793 21.7542 3.44299V3.35259C21.7542 3.18684 21.7006 3.08137 21.5934 3.03616C21.4862 2.97589 21.402 2.89302 21.3407 2.78754C21.111 2.77248 20.8813 2.74234 20.6516 2.69714C20.4372 2.65193 20.2151 2.62933 19.9854 2.62933C19.6791 2.62933 19.4417 2.73481 19.2733 2.94576C19.1967 2.91562 19.1278 2.87795 19.0665 2.83275C19.0206 2.78754 18.9517 2.77248 18.8598 2.78754H18.7909C17.9639 2.78754 17.1522 2.87795 16.3559 3.05876C15.5595 3.22451 14.7708 3.43546 13.9898 3.69161C13.2087 3.9327 12.4277 4.19638 11.6467 4.48267C10.8656 4.76896 10.0846 5.01758 9.30355 5.22853C9.11978 5.46961 8.92835 5.65043 8.72926 5.77097C8.53017 5.87644 8.33108 5.96685 8.132 6.04219C7.94822 6.11753 7.76445 6.19287 7.58067 6.26821C7.3969 6.34355 7.2361 6.46409 7.09827 6.62983C6.97575 6.79558 6.87621 7.02913 6.79963 7.33049C6.73838 7.61678 6.72306 8.01607 6.75369 8.52838C6.67712 8.61878 6.63118 8.71673 6.61586 8.8222C6.60055 8.92767 6.58523 9.03315 6.56992 9.13862C6.5546 9.22903 6.53163 9.31944 6.501 9.40984C6.47037 9.50025 6.41677 9.58312 6.3402 9.65846C6.37083 9.80914 6.3938 9.95982 6.40911 10.1105C6.42443 10.2612 6.43209 10.4119 6.43209 10.5625C6.43209 11.1954 6.32489 11.8132 6.11048 12.4159C6.18705 12.5364 6.22534 12.672 6.22534 12.8227C6.22534 12.9884 6.20237 13.1391 6.15643 13.2747C6.11048 13.4103 6.08751 13.561 6.08751 13.7268C6.08751 13.8925 6.11814 14.0281 6.1794 14.1336C6.27128 14.1336 6.32489 14.1637 6.3402 14.224H6.47803C6.75369 14.224 6.99107 14.1562 7.19015 14.0206C7.38924 13.885 7.60365 13.8172 7.83336 13.8172C7.87931 13.8172 7.93291 13.8322 7.99416 13.8624C8.05542 13.8925 8.10902 13.9076 8.15497 13.9076C8.26217 13.9076 8.30811 13.8699 8.2928 13.7946C8.27748 13.7192 8.31577 13.6665 8.40766 13.6364L9.23464 13.5008C9.75533 13.4103 10.2454 13.3049 10.7048 13.1843C11.1796 13.0487 11.6467 12.8528 12.1061 12.5967C12.2133 12.6419 12.3358 12.6645 12.4737 12.6645C12.5962 12.6645 12.7263 12.6494 12.8642 12.6193C13.002 12.5741 13.1322 12.5515 13.2547 12.5515C13.3619 12.5515 13.4461 12.5665 13.5074 12.5967C13.5993 12.5364 13.7141 12.4912 13.852 12.4611C13.9898 12.4159 14.0664 12.3255 14.0817 12.1899H14.1276C14.1889 12.1899 14.2348 12.2049 14.2654 12.2351C14.2961 12.2652 14.342 12.2803 14.4033 12.2803H14.4952C14.8168 12.1296 15.1077 12.0166 15.3681 11.9412C15.7969 11.8358 16.2563 11.7454 16.7464 11.67C17.2365 11.5796 17.6729 11.4289 18.0558 11.218C18.4999 11.218 18.9287 11.1502 19.3422 11.0146C19.771 10.8639 20.1998 10.7885 20.6286 10.7885C20.8277 10.7885 21.0115 10.8187 21.1799 10.879C21.3331 10.7735 21.5092 10.6981 21.7083 10.6529C21.9227 10.6077 22.0988 10.5249 22.2366 10.4043C22.3285 10.4194 22.4204 10.4345 22.5123 10.4495C22.6195 10.4495 22.7267 10.4495 22.8339 10.4495C23.2933 10.4495 23.7298 10.3893 24.1433 10.2687C24.5721 10.1331 25.0086 10.0352 25.4527 9.97489C25.5599 10.0954 25.6288 10.2235 25.6594 10.3591C25.7054 10.4797 25.7283 10.6077 25.7283 10.7433Z" fill="white"/>
<path d="M38.6256 22.3606C38.5797 22.5716 38.4801 22.7449 38.327 22.8805C38.1891 23.001 38.0207 23.0989 37.8216 23.1743C37.6225 23.2496 37.4158 23.3024 37.2014 23.3325C37.0023 23.3476 36.8185 23.3551 36.65 23.3551C36.5735 23.3551 36.4969 23.3551 36.4203 23.3551C36.3591 23.34 36.2901 23.3325 36.2136 23.3325C36.137 23.3325 36.0987 23.3702 36.0987 23.4455C36.0987 23.5208 36.0604 23.5736 35.9838 23.6037C35.9073 23.5736 35.8307 23.551 35.7541 23.5359C35.6776 23.5208 35.601 23.5133 35.5244 23.5133C35.4172 23.5133 35.31 23.5208 35.2028 23.5359C35.1109 23.551 35.019 23.5585 34.9271 23.5585C34.8046 23.5585 34.7127 23.5434 34.6515 23.5133C34.6055 23.4832 34.5596 23.453 34.5137 23.4229C34.483 23.3777 34.4447 23.3325 34.3988 23.2873C34.3682 23.2421 34.3146 23.2044 34.238 23.1743C34.1308 23.1291 34.0389 23.1215 33.9623 23.1517C33.9011 23.1818 33.8015 23.1366 33.6637 23.0161C33.4799 22.8654 33.3191 22.6846 33.1813 22.4736C33.0588 22.2476 32.9363 22.0141 32.8137 21.773C32.6912 21.5319 32.5611 21.2908 32.4232 21.0497C32.2854 20.8086 32.1246 20.5977 31.9408 20.4169H31.757C31.4814 20.4169 31.29 20.5299 31.1828 20.7559C31.1062 20.7107 31.0296 20.658 30.953 20.5977C30.8765 20.5224 30.7922 20.4621 30.7003 20.4169C30.3481 20.5224 29.9806 20.6128 29.5977 20.6881C29.2148 20.7634 28.832 20.8011 28.4491 20.8011H28.1275C28.0356 20.8011 27.9361 20.786 27.8289 20.7559C27.6757 20.8162 27.5379 20.8915 27.4154 20.9819C27.2929 21.0573 27.155 21.0949 27.0019 21.0949C26.91 21.0949 26.8028 21.0648 26.6803 21.0045C26.5884 21.0045 26.5425 21.0422 26.5425 21.1175C26.5578 21.1929 26.5118 21.2305 26.4046 21.2305H26.1979C25.9835 21.2305 25.7691 21.2381 25.5547 21.2531C25.3556 21.2682 25.1488 21.2757 24.9344 21.2757C24.6435 21.2757 24.3448 21.2381 24.0385 21.1627C23.962 21.2079 23.8777 21.2305 23.7859 21.2305C23.7246 21.2607 23.6787 21.3134 23.648 21.3887C23.6174 21.449 23.5868 21.5093 23.5561 21.5696C23.5255 21.6148 23.4796 21.66 23.4183 21.7052C23.3724 21.7353 23.3034 21.7428 23.2116 21.7278C23.1809 21.9086 23.1044 22.0517 22.9818 22.1572C22.8593 22.2627 22.7981 22.4209 22.7981 22.6318C22.6296 22.7222 22.4918 22.8353 22.3846 22.9709C22.2774 23.1065 22.1702 23.2496 22.063 23.4003C21.9558 23.551 21.8409 23.6941 21.7184 23.8297C21.6112 23.9653 21.4734 24.0708 21.3049 24.1462C21.2283 24.2366 21.2054 24.3797 21.236 24.5756C21.0675 24.7112 20.8608 24.8317 20.6158 24.9372C20.3707 25.0427 20.141 25.0954 19.9266 25.0954C19.4825 25.0954 19.1762 24.8619 19.0077 24.3948C19.0077 24.2441 19.0231 24.0859 19.0537 23.9201C19.069 23.7393 19.0996 23.5736 19.1456 23.4229C19.1915 23.2572 19.2604 23.114 19.3523 22.9935C19.4442 22.8579 19.5744 22.7599 19.7428 22.6996C19.7428 22.564 19.6969 22.4736 19.605 22.4284C19.5131 22.3682 19.4748 22.2702 19.4901 22.1346C19.9036 21.9387 20.2635 21.6826 20.5698 21.3661C20.8761 21.0497 21.1518 20.7182 21.3968 20.3717C21.6571 20.01 21.9175 19.6484 22.1778 19.2868C22.4382 18.9252 22.7292 18.6012 23.0508 18.3149V17.8403C23.5102 17.3581 23.8088 16.8157 23.9467 16.213C24.1151 16.1828 24.2223 16.1075 24.2683 15.9869C24.3295 15.8664 24.3601 15.7233 24.3601 15.5575C24.4367 15.5575 24.4827 15.5274 24.498 15.4671C24.5286 15.3918 24.5975 15.3692 24.7047 15.3993C24.8426 15.0377 24.9957 14.7062 25.1642 14.4048C25.3326 14.1035 25.5011 13.8021 25.6695 13.5008C25.838 13.1843 25.9835 12.8604 26.106 12.5289C26.2438 12.1974 26.3434 11.8282 26.4046 11.4214C26.619 11.4063 26.7339 11.3084 26.7492 11.1276C26.7798 10.9317 26.8105 10.7584 26.8411 10.6077C27.0708 10.3968 27.2393 10.1482 27.3465 9.86188C27.469 9.57559 27.5762 9.28177 27.6681 8.98041C27.76 8.66399 27.8595 8.3551 27.9667 8.05374C28.0892 7.73732 27.9131 6.96133 28.1275 6.72024V6.65244C28.1275 6.5771 28.0969 6.53189 28.0356 6.51683C27.9744 6.48669 27.9437 6.43395 27.9437 6.35861C27.9591 6.34355 27.9667 6.32848 27.9667 6.31341C28.1505 6.23807 28.2883 6.11753 28.3802 5.95178C28.4721 5.77097 28.6099 5.64289 28.7937 5.56755C29.1153 5.82371 29.7432 6.47916 29.9882 6.53943C30.2333 6.58463 30.5549 6.6223 30.953 6.65244C31.1521 6.86339 31.2593 7.11954 31.2746 7.42089C31.3053 7.70718 31.3589 7.99347 31.4354 8.27976C31.558 8.76193 31.6881 9.23656 31.826 9.70367C31.9791 10.1557 32.094 10.6228 32.1705 11.105C32.2165 11.3913 32.3007 11.6625 32.4232 11.9186C32.5457 12.1748 32.63 12.4385 32.6759 12.7097C32.7065 12.9206 32.7065 13.1617 32.6759 13.4329C32.6453 13.6891 32.6759 13.9151 32.7678 14.111L32.9286 14.4726C33.0052 14.6384 33.0664 14.8117 33.1124 14.9925C33.1736 15.1733 33.2272 15.3541 33.2732 15.5349C33.3957 15.9869 33.5029 16.4766 33.5948 17.004C33.702 17.5163 33.8628 17.9834 34.0772 18.4053C34.1538 18.556 34.2686 18.6615 34.4218 18.7217C34.5902 18.782 34.774 18.8272 34.9731 18.8574C35.1722 18.8724 35.3636 18.88 35.5474 18.88C35.7465 18.8649 35.9149 18.8574 36.0528 18.8574H36.2825C36.3744 18.8574 36.4663 18.8724 36.5581 18.9026C36.6194 19.0231 36.65 19.1286 36.65 19.219C36.65 19.3998 36.5888 19.5429 36.4663 19.6484C36.3437 19.7539 36.2825 19.8744 36.2825 20.01C36.2825 20.0854 36.3131 20.1683 36.3744 20.2587C36.3131 20.2436 36.2212 20.2361 36.0987 20.2361C35.7465 20.2361 35.4019 20.2963 35.065 20.4169C35.1875 20.673 35.3483 20.8915 35.5474 21.0723C35.7618 21.2381 35.9838 21.3963 36.2136 21.547C36.3667 21.4264 36.5275 21.3661 36.696 21.3661C36.8797 21.3661 37.0482 21.4114 37.2014 21.5018C37.3698 21.5771 37.5459 21.6148 37.7297 21.6148C37.8675 21.6148 37.9671 21.5922 38.0283 21.547C38.1508 21.6826 38.2504 21.8257 38.327 21.9764C38.4035 22.112 38.5031 22.2401 38.6256 22.3606ZM31.4354 18.7443C31.4048 18.4882 31.3512 18.3074 31.2746 18.2019C31.2134 18.0814 31.1598 17.9382 31.1138 17.7725C31.0526 17.5615 31.0066 17.3355 30.976 17.0944C30.9607 16.8533 30.9301 16.6198 30.8841 16.3938C30.7769 15.8815 30.6544 15.3692 30.5166 14.8569C30.3941 14.3445 30.2333 13.8473 30.0342 13.3651C30.0954 13.2747 30.1261 13.1919 30.1261 13.1165V13.0487C29.9882 12.898 29.8887 12.7172 29.8274 12.5063C29.7662 12.2803 29.7049 12.0618 29.6436 11.8508C29.5977 11.6248 29.5288 11.4214 29.4369 11.2406C29.3603 11.0447 29.2302 10.8865 29.0464 10.7659C29.0004 10.8564 28.9775 10.9618 28.9775 11.0824C28.9775 11.1878 28.9851 11.2858 29.0004 11.3762C29.0311 11.4666 29.0464 11.5645 29.0464 11.67C28.8932 11.7454 28.7784 11.8659 28.7018 12.0316C28.6405 12.1823 28.5333 12.3029 28.3802 12.3933C28.2577 12.8754 28.0816 13.335 27.8519 13.772C27.6221 14.1939 27.3771 14.6158 27.1168 15.0377C26.8717 15.4596 26.6343 15.889 26.4046 16.326C26.1749 16.7479 25.9911 17.1924 25.8533 17.6595C25.6542 17.7951 25.5164 17.9684 25.4398 18.1793C25.3786 18.3903 25.3479 18.6012 25.3479 18.8122C25.4858 18.8875 25.6389 18.9327 25.8074 18.9478C25.9911 18.9478 26.1673 18.9478 26.3357 18.9478C26.5042 18.9478 26.665 18.9628 26.8181 18.993C26.9713 19.0231 27.1091 19.0984 27.2316 19.219C27.4307 19.1587 27.6451 19.121 27.8748 19.106C28.1199 19.0758 28.3189 19.008 28.4721 18.9026C28.7784 19.008 29.1076 19.0608 29.4599 19.0608C29.6436 19.0608 29.8198 19.0457 29.9882 19.0156C30.172 18.9854 30.3481 18.9478 30.5166 18.9026C30.6544 18.9327 30.7616 18.9854 30.8382 19.0608C30.9148 19.121 31.0296 19.1436 31.1828 19.1286C31.2593 19.0683 31.3053 19.008 31.3206 18.9478C31.3359 18.8724 31.3742 18.8046 31.4354 18.7443Z" fill="white"/>
<path d="M53.3146 9.16123C53.284 9.34204 53.2381 9.50025 53.1768 9.63586C53.1309 9.7564 53.1232 9.92215 53.1538 10.1331C53.0007 10.1482 52.8782 10.2009 52.7863 10.2913C52.7097 10.3666 52.6408 10.4571 52.5795 10.5625C52.5336 10.668 52.48 10.781 52.4187 10.9016C52.3728 11.007 52.3115 11.105 52.235 11.1954C52.3575 11.7378 52.4264 12.2878 52.4417 12.8453C52.457 13.4028 52.4953 13.9528 52.5566 14.4952C52.6331 15.1883 52.748 15.8739 52.9012 16.552C53.0696 17.215 53.1538 17.893 53.1538 18.5861C53.1538 18.7971 53.1462 18.993 53.1309 19.1738C53.1309 19.3546 53.1309 19.5429 53.1309 19.7388C53.1309 19.8594 53.1309 19.9874 53.1309 20.1231C53.1462 20.2436 53.1538 20.3641 53.1538 20.4847C53.1538 20.9216 53.0926 21.3586 52.9701 21.7956C52.8629 22.2325 52.7786 22.6695 52.7174 23.1065C52.5336 23.2722 52.3728 23.453 52.235 23.6489C52.1125 23.8448 51.9823 24.0256 51.8445 24.1914C51.7066 24.3571 51.5458 24.5003 51.362 24.6208C51.1783 24.7564 50.9486 24.8468 50.6729 24.892C50.627 25.0427 50.5351 25.1557 50.3972 25.231C50.2747 25.3064 50.1675 25.4119 50.0756 25.5475H50.0297C49.6468 25.5475 49.3176 25.4947 49.0419 25.3893C48.7662 25.2838 48.5059 25.1632 48.2609 25.0276C48.0311 24.892 47.7938 24.7489 47.5487 24.5982C47.3037 24.4475 47.0204 24.327 46.6988 24.2366C46.27 23.89 45.8795 23.5133 45.5272 23.1065C45.175 22.6846 44.7768 22.3079 44.3327 21.9764C44.2255 21.675 44.08 21.4264 43.8962 21.2305C43.7278 21.0347 43.5593 20.8086 43.3909 20.5525C43.3143 20.447 43.253 20.3491 43.2071 20.2587C43.1765 20.1683 43.1305 20.0628 43.0693 19.9422C43.0233 19.8217 42.9467 19.7388 42.8395 19.6936C42.7476 19.6484 42.6634 19.5957 42.5868 19.5354C42.4643 19.0683 42.2882 18.6389 42.0585 18.2471C41.8288 17.8553 41.5608 17.4787 41.2545 17.117C41.1626 17.2828 41.086 17.4636 41.0248 17.6595C40.9788 17.8403 40.9329 18.0286 40.8869 18.2245C40.841 18.4053 40.7797 18.5937 40.7032 18.7896C40.6419 18.9704 40.5577 19.1361 40.4505 19.2868V19.3546C40.4505 19.4299 40.4811 19.4751 40.5424 19.4902C40.6036 19.5053 40.6342 19.5505 40.6342 19.6258C40.6342 19.6409 40.6266 19.656 40.6113 19.671C40.6113 19.6861 40.6113 19.7012 40.6113 19.7162C40.5347 19.7765 40.4734 19.8518 40.4275 19.9422C40.3969 20.0326 40.3203 20.0854 40.1978 20.1005C40.2131 20.1758 40.2208 20.2511 40.2208 20.3265V20.5299C40.2208 20.9669 40.1672 21.4038 40.06 21.8408C39.9681 22.2777 39.9221 22.7222 39.9221 23.1743V23.4681C39.9221 23.5736 39.9298 23.6715 39.9451 23.7619C39.9757 23.8523 40.0217 23.9427 40.0829 24.0331C40.1442 24.1236 40.818 24.6476 40.818 24.723C40.818 24.8285 40.7721 24.9264 40.6802 25.0168C40.7874 25.0921 40.9099 25.175 41.0477 25.2654C41.1856 25.3558 41.3081 25.4538 41.4153 25.5592C41.5378 25.6798 41.6373 25.8003 41.7139 25.9209C41.7905 26.0565 41.8288 26.1996 41.8288 26.3503C41.8288 26.6065 41.7445 26.7873 41.5761 26.8927C41.4076 26.9982 41.2009 27.0811 40.9559 27.1414C40.7261 27.2016 40.4811 27.2544 40.2208 27.2996C39.9757 27.3598 39.1258 27.0166 38.9573 27.1522H38.8884C38.7046 27.1522 38.5668 27.0994 38.4749 26.994C38.383 26.8885 38.2452 26.8358 38.0614 26.8358C37.7704 26.3687 37.5714 25.8413 37.4641 25.2536C37.3569 24.6811 37.3033 24.1311 37.3033 23.6037C37.3033 22.9558 37.3646 22.3079 37.4871 21.66C37.5943 21.0121 37.7322 20.3717 37.9006 19.7388C38.0538 19.106 38.2222 18.4807 38.406 17.8629C38.6051 17.23 38.7889 16.5972 38.9573 15.9643L38.9803 15.8965C38.9803 15.8212 38.9573 15.7685 38.9114 15.7383C38.8807 15.7082 38.8654 15.663 38.8654 15.6027C38.8654 15.5726 38.8731 15.5575 38.8884 15.5575C38.9343 15.4068 38.9803 15.2637 39.0262 15.1281C39.0875 14.9925 39.1334 14.8418 39.1641 14.676C39.2559 14.2541 39.3172 13.8247 39.3478 13.3877C39.3938 12.9357 39.4167 12.4912 39.4167 12.0542C39.4321 11.6173 39.4474 11.1803 39.4627 10.7433C39.4933 10.2913 39.5469 9.84681 39.6235 9.40984C39.746 9.2893 39.8609 9.16123 39.9681 9.02561C40.0753 8.89001 40.2131 8.76946 40.3816 8.66399C40.6878 8.67906 40.9941 8.72426 41.3004 8.7996C41.6067 8.87494 41.8977 8.99548 42.1734 9.16123C42.3571 9.80914 42.4796 10.4571 42.5409 11.105C42.6175 11.7529 42.74 12.4008 42.9085 13.0487V13.1165C42.9085 13.1919 42.9467 13.2295 43.0233 13.2295C43.1152 13.2145 43.1841 13.2371 43.2301 13.2973C43.1994 13.3425 43.1765 13.3953 43.1611 13.4555C43.1611 13.5158 43.1611 13.5761 43.1611 13.6364V14.0206C43.1918 14.1411 43.2301 14.2692 43.276 14.4048C43.3219 14.5404 43.4215 14.6233 43.5746 14.6534C43.6512 15.1356 43.7661 15.5801 43.9192 15.9869C44.0724 16.3938 44.2485 16.7855 44.4476 17.1622C44.6466 17.5389 44.861 17.9156 45.0908 18.2923C45.3205 18.6539 45.5579 19.0382 45.8029 19.445C46.1858 19.7313 46.515 20.0628 46.7907 20.4395C47.0663 20.8011 47.342 21.1552 47.6177 21.5018C47.9086 21.8332 48.2302 22.1271 48.5825 22.3832C48.95 22.6394 49.4248 22.7976 50.0067 22.8579C50.0833 22.7976 50.1369 22.7147 50.1675 22.6092L50.2824 22.2928C50.3283 22.1873 50.3743 22.0969 50.4202 22.0216C50.4815 21.9312 50.5657 21.8634 50.6729 21.8182C50.7035 21.3963 50.7342 20.9669 50.7648 20.5299C50.8107 20.0929 50.9103 19.6786 51.0634 19.2868C50.9868 19.1512 50.9486 18.9854 50.9486 18.7896C50.9486 18.6389 50.9562 18.4957 50.9715 18.3601C51.0022 18.2245 51.0175 18.0889 51.0175 17.9533C51.0175 17.667 50.9562 17.4334 50.8337 17.2526C50.8337 17.1472 50.8414 17.0417 50.8567 16.9362C50.872 16.8157 50.9179 16.7027 50.9945 16.5972C50.872 16.2958 50.7724 15.9794 50.6959 15.6479C50.6346 15.3164 50.604 14.9774 50.604 14.6308C50.604 14.435 50.627 14.2315 50.6729 14.0206C50.581 13.7946 50.5197 13.5309 50.4891 13.2295L50.3972 12.3029C50.3666 11.9864 50.3207 11.6926 50.2594 11.4214C50.1981 11.1502 50.0833 10.9317 49.9148 10.7659C50.0067 10.6303 50.0527 10.4721 50.0527 10.2913C50.0527 9.98995 50.0067 9.70367 49.9148 9.43245C49.8229 9.16123 49.777 8.87494 49.777 8.57358C49.777 8.36263 49.8229 8.15168 49.9148 7.94073C50.2517 7.9558 50.581 7.99347 50.9026 8.05374C51.2395 8.09895 51.5688 8.12155 51.8904 8.12155C51.9823 8.24209 52.0895 8.34003 52.212 8.41537C52.3345 8.49071 52.4647 8.56605 52.6025 8.64139C52.7404 8.70166 52.8705 8.76946 52.993 8.8448C53.1309 8.92014 53.2381 9.02561 53.3146 9.16123Z" fill="white"/>
<path d="M70.8063 12.8679C70.8063 13.0186 70.7526 13.1165 70.6454 13.1617C70.5382 13.2069 70.4846 13.2973 70.4846 13.4329C70.4846 13.4782 70.5 13.5158 70.5306 13.546C70.5612 13.5761 70.5765 13.6213 70.5765 13.6816V13.772C70.3928 14.6459 70.1248 15.4068 69.7725 16.0547C69.4356 16.7027 69.0374 17.2978 68.578 17.8403C68.1186 18.3827 67.5979 18.895 67.0159 19.3772C66.4493 19.8594 65.8367 20.3641 65.1782 20.8915C64.9944 21.0422 64.803 21.1929 64.6039 21.3435C64.4201 21.4942 64.244 21.6524 64.0755 21.8182L63.5702 22.2928C63.5548 22.3079 63.4706 22.3456 63.3175 22.4058C63.1643 22.451 63.0724 22.4812 63.0418 22.4962C62.8274 22.5866 62.5977 22.6921 62.3526 22.8127C62.1229 22.9332 61.9238 23.0839 61.7554 23.2647C61.4491 23.2647 61.1887 23.3099 60.9743 23.4003C60.7599 23.4907 60.5226 23.6112 60.2622 23.7619C60.1856 23.7619 60.1167 23.7469 60.0555 23.7167C60.0095 23.6866 59.9559 23.6565 59.8947 23.6263C59.8334 23.5962 59.7645 23.5811 59.6879 23.5811C59.6267 23.566 59.5424 23.5736 59.4352 23.6037C59.2515 23.3024 59.0524 23.0462 58.838 22.8353C58.6236 22.6243 58.3326 22.4962 57.965 22.451C57.9191 22.1949 57.8119 21.999 57.6434 21.8634C57.475 21.7127 57.3065 21.5545 57.1381 21.3887C57.1074 21.2983 57.0845 21.1929 57.0691 21.0723C57.0538 20.9518 57.0232 20.8388 56.9773 20.7333C56.9313 20.6278 56.8701 20.5374 56.7935 20.4621C56.7169 20.3867 56.6097 20.3491 56.4719 20.3491C56.4566 20.2587 56.4949 20.2135 56.5867 20.2135C56.6786 20.2135 56.7246 20.1758 56.7246 20.1005C56.7246 20.01 56.7093 19.9196 56.6786 19.8292C56.648 19.7388 56.6327 19.6409 56.6327 19.5354C56.6327 19.4601 56.6403 19.3923 56.6557 19.332C56.671 19.2717 56.6939 19.2039 56.7246 19.1286C56.6786 18.7217 56.6557 18.3074 56.6557 17.8855C56.6557 17.0718 56.7093 16.2732 56.8165 15.4897C56.939 14.6911 57.0002 13.885 57.0002 13.0713C57.0002 12.7097 56.9773 12.3481 56.9313 11.9864C56.9007 11.6248 56.8318 11.2707 56.7246 10.9242C56.3723 10.9995 56.0201 11.0899 55.6679 11.1954C55.3156 11.2858 54.9864 11.4139 54.6801 11.5796C54.5116 11.4741 54.3355 11.4139 54.1517 11.3988C53.9527 11.3687 53.7612 11.3235 53.5774 11.2632C53.4702 11.0522 53.4166 10.8338 53.4166 10.6077C53.4166 10.3968 53.4549 10.1934 53.5315 9.99749L53.7612 9.40984C54.1288 9.33451 54.4963 9.2215 54.8639 9.07082C55.2161 8.92014 55.576 8.78453 55.9435 8.66399C56.0661 8.63385 56.2192 8.59618 56.403 8.55098C56.6021 8.50578 56.7399 8.46811 56.8165 8.43797C56.9237 8.39277 56.9926 8.30989 57.0232 8.18935C57.0691 8.05374 57.1304 7.94073 57.207 7.85033H57.5975C57.6894 7.85033 57.7889 7.85786 57.8961 7.87293C58.0033 7.87293 58.1029 7.89553 58.1948 7.94073C58.7461 7.80512 59.2974 7.72225 59.8487 7.69211C60.4001 7.64691 60.9667 7.58664 61.5486 7.5113C61.6099 7.5113 61.7018 7.50377 61.8243 7.4887L62.2148 7.42089C62.3526 7.39076 62.4752 7.36816 62.5824 7.35309C62.7049 7.32295 62.7891 7.30789 62.8351 7.30789C62.881 7.30789 62.904 7.33049 62.904 7.37569H63.2945C63.953 7.37569 64.5962 7.45856 65.2241 7.62431L67.1078 8.12155C67.3681 8.3325 67.6285 8.53591 67.8888 8.73179C68.1492 8.92767 68.4402 9.10095 68.7618 9.25163C68.8383 9.49272 68.9532 9.6886 69.1063 9.83928C69.2748 9.97489 69.4586 10.1256 69.6577 10.2913C69.7342 10.4872 69.8338 10.6981 69.9563 10.9242C70.0941 11.1351 70.2243 11.3536 70.3468 11.5796C70.4693 11.8056 70.5765 12.0316 70.6684 12.2577C70.7603 12.4686 70.8063 12.672 70.8063 12.8679ZM68.6699 13.2069C68.5014 12.8604 68.3406 12.4987 68.1875 12.122C68.0343 11.7454 67.8429 11.4063 67.6132 11.105C67.3375 11.0296 67.0542 10.9392 66.7632 10.8338C66.4876 10.7132 66.2961 10.5098 66.1889 10.2235C66.1583 10.2386 66.1047 10.2461 66.0281 10.2461C65.8903 10.2461 65.7678 10.1934 65.6606 10.0879C65.5534 9.98242 65.4309 9.91462 65.293 9.88448C65.1705 9.86941 65.0021 9.84681 64.7877 9.81668C64.5886 9.78654 64.3742 9.76394 64.1444 9.74887C63.9147 9.7338 63.685 9.71873 63.4553 9.70367C63.2409 9.6886 63.0724 9.68106 62.9499 9.68106C62.8274 9.68106 62.6972 9.6886 62.5594 9.70367C62.4369 9.70367 62.3067 9.7112 62.1689 9.72627C62.0464 9.72627 61.9698 9.74887 61.9392 9.79407C61.9085 9.82421 61.8473 9.85434 61.7554 9.88448C61.6788 9.85434 61.5946 9.83928 61.5027 9.83928H61.227C60.9054 9.83928 60.5838 9.89201 60.2622 9.99749C59.9559 10.0879 59.6496 10.216 59.3434 10.3817V10.4721C59.3434 10.5927 59.397 10.6605 59.5042 10.6755C59.6114 10.6906 59.6726 10.7509 59.6879 10.8564C59.6114 10.8564 59.5501 10.8639 59.5042 10.879C59.4582 10.879 59.4352 10.9317 59.4352 11.0372C59.4352 11.1878 59.4506 11.3536 59.4812 11.5344C59.5271 11.7152 59.5501 11.896 59.5501 12.0768C59.5501 12.2125 59.5348 12.3707 59.5042 12.5515C59.4735 12.7323 59.397 12.8754 59.2744 12.9809C59.4276 13.1165 59.5042 13.2973 59.5042 13.5234C59.5042 13.674 59.4735 13.8322 59.4123 13.998C59.351 14.1637 59.2744 14.3069 59.1825 14.4274C59.1519 15.0603 59.0907 15.7007 58.9988 16.3486C58.9069 16.9965 58.8609 17.6369 58.8609 18.2697C58.8609 18.5861 58.8763 18.895 58.9069 19.1964C58.9528 19.4977 59.0217 19.7991 59.1136 20.1005C59.2821 20.2662 59.4582 20.3943 59.642 20.4847C59.8411 20.5751 60.0478 20.6655 60.2622 20.7559V20.8237C60.2622 20.8689 60.2316 20.9141 60.1703 20.9593C60.1091 21.0045 60.0784 21.0648 60.0784 21.1401C60.0784 21.2004 60.1091 21.2305 60.1703 21.2305C60.8135 21.0497 61.4185 20.8312 61.9851 20.5751C62.5517 20.3189 63.0801 19.9724 63.5702 19.5354C63.6161 19.4902 63.662 19.4676 63.708 19.4676C63.7386 19.4676 63.7769 19.4751 63.8228 19.4902C63.8841 19.5053 63.9377 19.5203 63.9836 19.5354L63.9607 19.445C63.9607 19.3546 63.9836 19.2717 64.0296 19.1964C64.0908 19.121 64.1598 19.0532 64.2363 18.993L64.466 18.7896C64.5426 18.7142 64.6039 18.6389 64.6498 18.5635C64.7723 18.5334 64.8566 18.4731 64.9025 18.3827C64.9638 18.2923 65.0633 18.2471 65.2011 18.2471C65.2318 18.0814 65.316 17.9608 65.4538 17.8855C65.5917 17.7951 65.6759 17.667 65.7065 17.5013C66.0128 17.3355 66.2808 17.1321 66.5105 16.891C66.7556 16.6499 66.9776 16.3938 67.1767 16.1226C67.3911 15.8513 67.5902 15.5726 67.774 15.2863C67.9578 14.9849 68.1492 14.6986 68.3483 14.4274V14.337C68.3483 14.0959 68.3866 13.9 68.4631 13.7494C68.555 13.5987 68.6239 13.4179 68.6699 13.2069Z" fill="white"/>
<path d="M86.1155 10.9242C86.0236 11.0598 85.97 11.2104 85.9547 11.3762C85.9394 11.5419 85.9318 11.6926 85.9318 11.8282C85.9318 12.009 85.9318 12.1899 85.9318 12.3707C85.9471 12.5364 85.9547 12.7022 85.9547 12.8679V13.2069C85.9241 13.3124 85.8782 13.4179 85.8169 13.5234C85.7556 13.6288 85.7097 13.7343 85.6791 13.8398C85.4647 14.3973 85.3575 14.9548 85.3575 15.5123V15.5575C85.2809 15.7383 85.2043 15.9041 85.1277 16.0547C85.0665 16.2054 85.0052 16.3561 84.944 16.5068C84.8827 16.6424 84.8368 16.7931 84.8061 16.9588C84.7755 17.1095 84.7679 17.2903 84.7832 17.5013C84.5688 18.0286 84.2855 18.5108 83.9332 18.9478C83.581 19.3697 83.2364 19.8066 82.8995 20.2587C82.5779 20.3792 82.2793 20.5374 82.0036 20.7333C81.7432 20.9292 81.4906 21.1477 81.2455 21.3887C80.7708 21.5394 80.3037 21.7127 79.8442 21.9086C79.3848 22.1045 78.9713 22.3682 78.6038 22.6996C78.3128 22.7298 78.0218 22.775 77.7309 22.8353C77.4399 22.8955 77.1566 22.9859 76.8809 23.1065H76.6052C76.4674 23.1065 76.3679 23.0763 76.3066 23.0161C76.1075 23.1215 75.9008 23.1969 75.6864 23.2421C75.472 23.2722 75.2576 23.2873 75.0432 23.2873C74.7675 23.2873 74.4918 23.2722 74.2162 23.2421C73.9558 23.1969 73.6878 23.1517 73.4122 23.1065C73.259 22.8955 73.0446 22.7373 72.769 22.6318C72.4933 22.5113 72.2483 22.3983 72.0339 22.2928C71.5897 21.6901 71.2681 21.11 71.069 20.5525C70.87 19.9799 70.6632 19.3395 70.4488 18.6313C70.4794 18.4204 70.533 18.217 70.6096 18.0211C70.6862 17.8101 70.7168 17.5841 70.7015 17.343C70.9772 16.5595 71.3371 15.8513 71.7812 15.2185C72.2406 14.5706 72.7613 13.9528 73.3432 13.3651C73.3432 13.2747 73.3586 13.1994 73.3892 13.1391C73.4351 13.0789 73.4428 12.9884 73.4122 12.8679C73.4275 12.883 73.4581 12.8905 73.5041 12.8905C73.6266 12.8905 73.7031 12.8604 73.7338 12.8001C73.7644 12.7248 73.772 12.6419 73.7567 12.5515C74.3081 12.2049 74.8058 11.8056 75.2499 11.3536C75.7093 10.9016 76.23 10.5249 76.812 10.2235C76.8579 10.0879 76.9345 9.97489 77.0417 9.88448C77.1489 9.79407 77.2331 9.6886 77.2944 9.56806C77.7844 9.43245 78.2286 9.22903 78.6267 8.95781C79.0249 8.68659 79.4461 8.44551 79.8902 8.23456C80.1352 8.09895 80.3649 8.00854 80.5793 7.96334C80.8091 7.90306 81.0541 7.84279 81.3144 7.78252C81.4063 7.75239 81.4906 7.72978 81.5671 7.71472C81.6437 7.69965 81.7279 7.69211 81.8198 7.69211C82.0955 7.69211 82.3635 7.74485 82.6238 7.85033C82.8842 7.94073 83.1522 7.98594 83.4278 7.98594C83.5044 7.98594 83.5657 7.98594 83.6116 7.98594C83.6729 7.97087 83.7341 7.9558 83.7954 7.94073C84.0557 8.25716 84.385 8.49824 84.7832 8.66399C84.8751 8.89001 84.9823 9.08589 85.1048 9.25163C85.2426 9.41738 85.3804 9.58312 85.5183 9.74887C85.6561 9.89955 85.7786 10.0728 85.8858 10.2687C86.0083 10.4495 86.0849 10.668 86.1155 10.9242ZM83.8184 12.0994C83.8184 12.0241 83.8107 11.9563 83.7954 11.896C83.6422 11.8508 83.4968 11.7906 83.3589 11.7152C83.2211 11.6399 83.0679 11.6022 82.8995 11.6022C82.7923 11.6022 82.6851 11.6248 82.5779 11.67C82.5626 11.5645 82.5166 11.4892 82.4401 11.444C82.3788 11.3988 82.3022 11.3611 82.2103 11.331C82.1338 11.2858 82.0495 11.2557 81.9576 11.2406C81.8811 11.2104 81.8122 11.1652 81.7509 11.105C81.705 10.9844 81.6514 10.8639 81.5901 10.7433C81.5442 10.6077 81.4523 10.5098 81.3144 10.4495C81.1766 10.5851 81.0158 10.6981 80.832 10.7885C80.6483 10.8639 80.4568 10.9392 80.2577 11.0146C80.074 11.0899 79.8902 11.1803 79.7064 11.2858C79.538 11.3913 79.3925 11.5193 79.27 11.67H78.8565C78.7646 11.8358 78.6344 11.9638 78.4659 12.0542C78.2975 12.1296 78.152 12.2426 78.0295 12.3933C77.7844 12.5138 77.5547 12.6645 77.3403 12.8453C77.1412 13.011 76.9422 13.1919 76.7431 13.3877C76.544 13.5686 76.3449 13.7569 76.1458 13.9528C75.962 14.1487 75.7629 14.3295 75.5485 14.4952C75.3494 14.9171 75.1274 15.2863 74.8824 15.6027C74.6526 15.9041 74.4306 16.213 74.2162 16.5294C74.0171 16.8458 73.841 17.1924 73.6878 17.5691C73.55 17.9307 73.4811 18.3827 73.4811 18.9252V19.1512C73.4811 19.2265 73.4887 19.3019 73.5041 19.3772C73.7031 19.5881 73.8639 19.8142 73.9865 20.0552C74.1243 20.2963 74.3463 20.4696 74.6526 20.5751C74.9589 20.6956 75.2805 20.7484 75.6174 20.7333C75.9697 20.7182 76.3066 20.7559 76.6282 20.8463C77.3633 20.7107 78.0678 20.4922 78.7416 20.1909C79.4308 19.8744 80.0816 19.4977 80.6942 19.0608C80.7861 18.9854 80.8933 18.9101 81.0158 18.8348C81.1383 18.7443 81.2379 18.6539 81.3144 18.5635C81.391 18.4882 81.4523 18.4053 81.4982 18.3149C81.5595 18.2245 81.6207 18.1416 81.682 18.0663C81.8045 17.8704 81.9423 17.6745 82.0955 17.4787C82.2486 17.2828 82.4094 17.102 82.5779 16.9362C82.6545 16.6047 82.754 16.2883 82.8765 15.9869C82.999 15.6705 83.1216 15.3616 83.2441 15.0603C83.3666 14.7589 83.4661 14.45 83.5427 14.1336C83.6346 13.8172 83.6805 13.4857 83.6805 13.1391C83.6805 13.0638 83.6729 12.9809 83.6576 12.8905C83.6576 12.8001 83.6499 12.7172 83.6346 12.6419C83.7571 12.4761 83.8184 12.2953 83.8184 12.0994Z" fill="white"/>
<path d="M109.634 22.1572C109.557 22.3983 109.534 22.6394 109.565 22.8805C109.519 22.9407 109.466 22.9784 109.404 22.9935C109.343 23.0085 109.282 23.0311 109.22 23.0613C109.159 23.0763 109.106 23.1065 109.06 23.1517C109.029 23.1818 109.029 23.2496 109.06 23.3551C108.554 23.3852 107.995 22.4962 107.535 22.677C107.076 22.8579 106.624 23.0537 106.18 23.2647C105.95 23.1894 105.751 23.0989 105.583 22.9935C105.414 22.888 105.2 22.8202 104.939 22.7901C104.679 22.2777 104.434 21.7428 104.204 21.1853C103.99 20.6128 103.883 20.0402 103.883 19.4676C103.883 19.0457 103.959 18.6615 104.113 18.3149C104.113 17.8629 104.151 17.4184 104.227 16.9814C104.304 16.5444 104.388 16.115 104.48 15.6931C104.587 15.2562 104.679 14.8192 104.756 14.3822C104.832 13.9453 104.871 13.5008 104.871 13.0487V12.5515C104.84 12.5515 104.802 12.5892 104.756 12.6645C104.71 12.7248 104.664 12.8001 104.618 12.8905C104.587 12.9658 104.557 13.0412 104.526 13.1165C104.495 13.1919 104.472 13.2371 104.457 13.2521C104.197 13.448 103.99 13.6966 103.837 13.998C103.699 14.2843 103.546 14.5555 103.377 14.8117C103.163 15.1281 102.933 15.437 102.688 15.7383C102.459 16.0397 102.168 16.2732 101.815 16.439V16.4842C101.815 16.5595 101.792 16.6123 101.746 16.6424C101.7 16.6725 101.693 16.7479 101.723 16.8684C101.341 16.9889 100.981 17.1622 100.644 17.3882C100.322 17.6143 100.054 17.9006 99.8398 18.2471C99.5335 18.3225 99.2425 18.4279 98.9669 18.5635C98.7065 18.6841 98.4385 18.8197 98.1628 18.9704C98.0403 19.0306 97.9101 19.106 97.7723 19.1964C97.6345 19.2868 97.4967 19.3471 97.3588 19.3772C97.2363 19.4224 97.0678 19.4525 96.8534 19.4676C96.6544 19.4827 96.44 19.4977 96.2102 19.5128C95.9958 19.5279 95.7814 19.5354 95.567 19.5354H95.0617C94.9851 19.5354 94.8855 19.4977 94.763 19.4224C94.6405 19.3471 94.5027 19.2642 94.3495 19.1738C94.2117 19.0834 94.0662 19.0005 93.9131 18.9252C93.7599 18.8348 93.6144 18.7745 93.4766 18.7443C93.3541 18.3526 93.178 18.006 92.9482 17.7047C92.7338 17.3882 92.5041 17.0718 92.2591 16.7554C92.1825 16.3938 92.0753 16.0171 91.9375 15.6253C91.815 15.2336 91.5929 14.9096 91.2713 14.6534C91.3479 14.548 91.3862 14.4274 91.3862 14.2918C91.3862 14.1261 91.3479 13.9679 91.2713 13.8172C91.1947 13.6665 91.1564 13.5008 91.1564 13.3199C91.1564 13.1994 91.1641 13.109 91.1794 13.0487C91.011 13.2295 90.8884 13.4631 90.8119 13.7494C90.7506 14.0206 90.72 14.2692 90.72 14.4952C90.72 14.676 90.743 14.8418 90.7889 14.9925C90.6358 15.2034 90.5362 15.4671 90.4903 15.7835C90.4596 16.0999 90.4443 16.3787 90.4443 16.6198C90.4443 16.9211 90.4673 17.215 90.5132 17.5013C90.2682 17.7423 90.1457 18.0362 90.1457 18.3827C90.1457 18.5786 90.1916 18.7519 90.2835 18.9026C90.2835 18.9628 90.2682 19.008 90.2376 19.0382C90.207 19.0683 90.1687 19.0909 90.1227 19.106C90.0921 19.121 90.0538 19.1436 90.0079 19.1738C89.9772 19.1888 89.9619 19.2265 89.9619 19.2868C89.9619 19.3621 89.9619 19.445 89.9619 19.5354C89.9772 19.6258 89.9849 19.7162 89.9849 19.8066C89.9849 20.0176 89.9772 20.2361 89.9619 20.4621C89.9466 20.6881 89.9389 20.9066 89.9389 21.1175C89.9389 21.5545 89.9772 21.8709 90.0538 22.0668C90.1457 22.2476 90.2529 22.3832 90.3754 22.4736C90.5132 22.564 90.6587 22.6544 90.8119 22.7449C90.965 22.8353 91.1182 23.0085 91.2713 23.2647C91.2254 23.4003 91.1411 23.5133 91.0186 23.6037C90.9114 23.6791 90.8042 23.7619 90.697 23.8523C90.6051 23.9277 90.5209 24.0181 90.4443 24.1236C90.3678 24.229 90.3371 24.3797 90.3524 24.5756H90.2376C90.0385 24.5756 89.8471 24.6057 89.6633 24.666C89.4795 24.7263 89.2881 24.7564 89.089 24.7564C89.0431 24.7564 88.9971 24.7489 88.9512 24.7338C88.9052 24.7338 88.8593 24.7338 88.8133 24.7338L88.5836 24.5982C88.507 24.553 88.4305 24.5304 88.3539 24.5304C88.2773 24.5304 88.1778 24.5455 88.0553 24.5756C87.8409 23.8975 87.6724 23.1969 87.5499 22.4736C87.4427 21.7504 87.3891 21.0422 87.3891 20.3491C87.3891 20.2737 87.4044 20.1984 87.435 20.1231C87.481 20.0326 87.5422 20.0025 87.6188 20.0326V19.6032C87.6188 19.1361 87.6571 18.6841 87.7337 18.2471C87.8255 17.7951 87.8715 17.328 87.8715 16.8458C87.8715 16.7102 87.8638 16.5746 87.8485 16.439C87.8485 16.3034 87.8409 16.1753 87.8255 16.0547C87.9021 15.7986 87.9787 15.5424 88.0553 15.2863C88.1472 15.0151 88.1931 14.7363 88.1931 14.45C88.1931 14.3295 88.1701 14.1863 88.1242 14.0206C88.2467 13.9302 88.3386 13.8172 88.3998 13.6816C88.4611 13.5309 88.507 13.3727 88.5377 13.2069C88.5683 13.0261 88.5913 12.8528 88.6066 12.6871C88.6219 12.5213 88.6372 12.3707 88.6525 12.2351C88.8057 11.9337 88.8899 11.6097 88.9052 11.2632C88.9205 10.9166 88.9971 10.5927 89.1349 10.2913C89.1196 10.231 89.112 10.1256 89.112 9.97489C89.112 9.67353 89.1579 9.37217 89.2498 9.07082C89.357 8.75439 89.5637 8.51331 89.87 8.34756C90.1457 8.45304 90.4673 8.50578 90.8348 8.50578C91.1871 8.50578 91.524 8.45304 91.8456 8.34756C91.9375 8.3777 92.0217 8.41537 92.0983 8.46057C92.1749 8.49071 92.2514 8.52838 92.328 8.57358C92.4199 8.60372 92.5118 8.63385 92.6037 8.66399C92.6956 8.67906 92.8028 8.67906 92.9253 8.66399C93.0784 9.10095 93.2086 9.54545 93.3158 9.99749C93.4383 10.4495 93.5302 10.9091 93.5915 11.3762C93.6221 11.5721 93.6297 11.783 93.6144 12.009C93.6144 12.2351 93.6297 12.446 93.6604 12.6419C93.6757 12.7624 93.714 12.8754 93.7752 12.9809C93.8365 13.0713 93.8977 13.1768 93.959 13.2973C94.0203 13.4179 94.0662 13.5535 94.0968 13.7042C94.1428 13.8548 94.1581 14.0432 94.1428 14.2692C94.3112 14.661 94.495 15.0377 94.6941 15.3993C94.9085 15.7459 95.1382 16.0924 95.3833 16.439C95.5211 16.4842 95.6436 16.5444 95.7508 16.6198C95.858 16.6801 95.9269 16.7855 95.9576 16.9362C96.0954 16.9362 96.2179 16.9588 96.3251 17.004L96.7156 17.117C97.2976 16.9362 97.8336 16.6951 98.3236 16.3938C98.829 16.0924 99.3574 15.8363 99.9087 15.6253C100.583 14.9774 101.164 14.2617 101.655 13.4782C102.145 12.6796 102.635 11.8885 103.125 11.105V10.6077C103.217 10.5625 103.293 10.5098 103.354 10.4495C103.431 10.3742 103.523 10.3214 103.63 10.2913C103.645 10.1105 103.684 9.93722 103.745 9.77147C103.822 9.59066 103.898 9.42491 103.975 9.27423C104.067 9.10849 104.143 8.95028 104.204 8.7996C104.266 8.63385 104.296 8.46057 104.296 8.27976C104.296 8.17428 104.289 8.08388 104.273 8.00854C104.503 7.78252 104.779 7.66951 105.1 7.66951C105.407 7.66951 105.713 7.74485 106.019 7.89553C106.341 8.03114 106.639 8.15922 106.915 8.27976C107.084 8.64139 107.206 9.02561 107.283 9.43245C107.375 9.82421 107.436 10.231 107.466 10.6529C107.497 11.0748 107.512 11.4967 107.512 11.9186V13.5234C107.497 13.6439 107.451 13.7343 107.375 13.7946C107.313 13.8398 107.267 13.9151 107.237 14.0206V14.2466C107.237 14.3219 107.229 14.3973 107.214 14.4726C107.214 14.7891 107.175 15.1205 107.099 15.4671C107.022 15.9041 106.923 16.3486 106.8 16.8006C106.693 17.2376 106.639 17.6821 106.639 18.1341C106.639 18.2998 106.647 18.4656 106.662 18.6313C106.678 18.7971 106.708 18.9628 106.754 19.1286C106.678 19.2642 106.639 19.4375 106.639 19.6484C106.639 19.8895 106.678 20.1155 106.754 20.3265C106.846 20.5224 106.953 20.7182 107.076 20.9141C107.29 20.9141 107.505 20.9066 107.719 20.8915C107.933 20.8764 108.156 20.8689 108.385 20.8689C108.677 21.8634 108.876 21.886 109.06 21.9312C109.243 21.9613 109.435 22.0367 109.634 22.1572Z" fill="white"/>
<path d="M126.153 17.2978C125.999 17.3129 125.862 17.3506 125.739 17.4108C125.632 17.4711 125.517 17.5163 125.394 17.5465C125.41 17.5615 125.417 17.5841 125.417 17.6143C125.417 17.7047 125.394 17.7725 125.349 17.8177C125.303 17.8478 125.295 17.9232 125.326 18.0437C125.096 18.1642 124.858 18.2546 124.613 18.3149C124.368 18.3752 124.116 18.4279 123.855 18.4731C123.61 18.5183 123.365 18.5711 123.12 18.6313C122.875 18.6916 122.646 18.7896 122.431 18.9252V18.6765C122.247 18.782 122.071 18.8348 121.903 18.8348C121.75 18.8348 121.604 18.8122 121.466 18.767C121.328 18.7067 121.175 18.6765 121.007 18.6765C120.93 18.6765 120.831 18.7067 120.708 18.767C120.555 18.7519 120.433 18.7142 120.341 18.6539C120.264 18.5786 120.165 18.5033 120.042 18.4279C119.965 18.5786 119.851 18.6765 119.697 18.7217C119.56 18.7519 119.429 18.767 119.307 18.767C119.138 18.767 118.978 18.7594 118.825 18.7443C118.687 18.7293 118.549 18.7067 118.411 18.6765C118.166 18.7519 117.936 18.7971 117.722 18.8122C117.507 18.8122 117.278 18.8122 117.033 18.8122C116.818 18.8122 116.612 18.8272 116.412 18.8574C116.229 18.8724 116.037 18.9252 115.838 19.0156C115.777 18.8649 115.647 18.7896 115.448 18.7896C115.356 18.7896 115.256 18.7971 115.149 18.8122C115.057 18.8122 114.965 18.8122 114.873 18.8122C114.72 18.8122 114.605 18.767 114.529 18.6765C114.468 18.7067 114.437 18.7594 114.437 18.8348C114.452 18.9101 114.452 18.9704 114.437 19.0156C114.207 18.9252 113.962 18.88 113.702 18.88C113.487 18.88 113.281 18.9026 113.082 18.9478C112.883 18.993 112.683 19.0156 112.484 19.0156C112.377 19.0156 112.27 19.0005 112.163 18.9704C112.056 18.9402 111.964 18.9252 111.887 18.9252C111.795 18.9252 111.726 18.9478 111.68 18.993C111.634 19.0231 111.588 19.0608 111.542 19.106C111.512 19.1361 111.466 19.1738 111.405 19.219C111.359 19.2491 111.29 19.2642 111.198 19.2642C111.029 19.2642 110.915 19.219 110.853 19.1286C110.792 19.0231 110.7 18.9553 110.578 18.9252C110.578 18.7745 110.555 18.6389 110.509 18.5183C110.463 18.3978 110.409 18.2772 110.348 18.1567C110.287 18.0211 110.233 17.893 110.187 17.7725C110.141 17.6519 110.118 17.5163 110.118 17.3656C110.118 17.3204 110.118 17.2752 110.118 17.23C110.134 17.1698 110.141 17.117 110.141 17.0718C110.356 16.7705 110.662 16.5595 111.06 16.439C111.474 16.3034 111.849 16.2356 112.186 16.2356C112.354 16.2356 112.477 16.2657 112.553 16.326C112.645 16.3862 112.752 16.4691 112.875 16.5746C113.947 16.454 115.019 16.3712 116.091 16.326C117.178 16.2808 118.258 16.228 119.33 16.1678C119.682 16.1376 120.034 16.115 120.387 16.0999C120.739 16.0698 121.091 16.0397 121.443 16.0095C121.489 16.0095 121.52 15.9945 121.535 15.9643C121.551 15.9191 121.558 15.8739 121.558 15.8287C121.573 15.7835 121.589 15.7459 121.604 15.7157C121.635 15.6856 121.681 15.6705 121.742 15.6705C121.91 15.6705 122.025 15.7233 122.087 15.8287C122.148 15.9191 122.24 15.9794 122.362 16.0095C122.469 15.9493 122.592 15.9041 122.73 15.8739C122.883 15.8438 123.028 15.8212 123.166 15.8061C123.304 15.776 123.434 15.7459 123.557 15.7157C123.695 15.6705 123.809 15.6027 123.901 15.5123C124.024 15.4972 124.093 15.5274 124.108 15.6027C124.123 15.663 124.169 15.7082 124.246 15.7383C124.322 15.7233 124.407 15.7082 124.499 15.6931C124.59 15.663 124.675 15.6479 124.751 15.6479H124.912C124.973 15.6479 125.027 15.6554 125.073 15.6705C125.211 15.9719 125.387 16.2431 125.601 16.4842C125.831 16.7253 126.015 16.9965 126.153 17.2978Z" fill="white"/>
<path d="M160 29.0733C160 29.2391 159.962 29.3973 159.885 29.548C159.579 29.7137 159.257 29.8267 158.92 29.887C158.599 29.9623 158.277 30 157.956 30C157.802 30 157.634 29.9925 157.45 29.9774C157.282 29.9774 157.129 29.9623 156.991 29.9322C156.945 29.9171 156.891 29.887 156.83 29.8418C156.769 29.7966 156.707 29.774 156.646 29.774C156.493 29.774 156.347 29.7966 156.21 29.8418C156.072 29.9021 155.926 29.9322 155.773 29.9322C155.697 29.9322 155.62 29.9096 155.543 29.8644C155.482 29.8192 155.413 29.7891 155.337 29.774C155.23 29.7438 155.122 29.7363 155.015 29.7514C154.908 29.7664 154.793 29.774 154.671 29.774C154.502 29.774 154.349 29.7514 154.211 29.7062C154.089 29.661 153.974 29.5781 153.867 29.4576C153.484 29.4124 153.108 29.337 152.741 29.2315C152.373 29.1411 152.006 29.0357 151.638 28.9151C151.271 28.8096 150.903 28.7042 150.536 28.5987C150.168 28.5083 149.793 28.448 149.41 28.4179C149.318 28.3124 149.211 28.2295 149.088 28.1693C148.966 28.1241 148.874 28.0412 148.813 27.9206C148.736 27.9206 148.683 27.9282 148.652 27.9432C148.621 27.9734 148.568 27.9884 148.491 27.9884C148.231 27.7775 147.947 27.5967 147.641 27.446C147.35 27.2953 147.044 27.1522 146.722 27.0166C146.416 26.881 146.11 26.7378 145.803 26.5871C145.512 26.4515 145.237 26.2707 144.976 26.0447H144.862C144.739 26.0598 144.632 26.0296 144.54 25.9543C144.463 25.894 144.364 25.8639 144.241 25.8639C144.165 25.8639 144.104 25.8714 144.058 25.8865C144.012 25.7659 143.943 25.668 143.851 25.5927C143.759 25.5173 143.659 25.442 143.552 25.3666C143.46 25.3064 143.368 25.2386 143.277 25.1632C143.185 25.103 143.116 25.0201 143.07 24.9146C142.687 24.779 142.312 24.6133 141.944 24.4174C141.592 24.2366 141.278 23.9955 141.002 23.6941C140.696 23.664 140.443 23.5736 140.244 23.4229C140.045 23.2572 139.861 23.0537 139.693 22.8127C139.325 22.6921 138.989 22.5339 138.682 22.338C138.376 22.1421 138.07 21.9387 137.763 21.7278C137.472 21.5168 137.158 21.3285 136.822 21.1627C136.5 20.9819 136.132 20.8538 135.719 20.7785C135.704 20.673 135.658 20.5977 135.581 20.5525C135.504 20.4922 135.413 20.447 135.305 20.4169C135.213 20.3717 135.122 20.334 135.03 20.3039C134.938 20.2737 134.869 20.2135 134.823 20.1231C134.777 20.1231 134.731 20.1231 134.685 20.1231C134.639 20.108 134.593 20.1005 134.547 20.1005C134.501 20.1005 134.448 20.108 134.387 20.1231C134.341 20.1231 134.295 20.1231 134.249 20.1231L134.272 20.0552C134.272 19.995 134.249 19.9573 134.203 19.9422C134.172 19.9272 134.126 19.9121 134.065 19.897C134.004 19.882 133.95 19.8594 133.904 19.8292C133.858 19.7991 133.835 19.7313 133.835 19.6258H133.766C133.598 19.6258 133.445 19.5957 133.307 19.5354C133.169 19.4751 133.016 19.4299 132.847 19.3998C132.817 19.5655 132.801 19.7238 132.801 19.8744V20.2813C132.801 20.9593 132.878 21.675 133.031 22.4284C133.184 23.1667 133.422 23.8297 133.743 24.4174C134.065 24.5379 134.341 24.6961 134.57 24.892C134.8 25.0879 135.022 25.3139 135.236 25.5701C135.252 25.9769 135.099 26.3159 134.777 26.5871C134.471 26.8734 134.111 27.0166 133.697 27.0166C133.468 27.0166 133.253 26.9563 133.054 26.8358C132.87 26.7303 132.717 26.5721 132.595 26.3611C132.503 26.3611 132.419 26.3762 132.342 26.4063C132.265 26.4515 132.174 26.4741 132.066 26.4741C132.02 26.4741 131.974 26.4666 131.929 26.4515C131.775 26.1954 131.622 25.9694 131.469 25.7735C131.331 25.5776 131.239 25.3139 131.193 24.9824C131.025 24.9071 130.918 24.7715 130.872 24.5756C130.841 24.3797 130.757 24.2215 130.619 24.101C130.558 23.4229 130.474 22.7449 130.366 22.0668C130.275 21.3887 130.229 20.7107 130.229 20.0326C130.229 19.882 130.236 19.7313 130.252 19.5806C130.267 19.4149 130.282 19.2491 130.298 19.0834C130.267 19.008 130.221 18.9402 130.16 18.88C130.114 18.8046 130.075 18.7293 130.045 18.6539C129.739 18.7293 129.417 18.8046 129.08 18.88C128.758 18.9402 128.429 18.9704 128.092 18.9704C127.878 18.9704 127.618 18.9402 127.311 18.88C127.005 18.8046 126.768 18.7067 126.599 18.5861C126.477 18.5108 126.392 18.3752 126.346 18.1793C126.285 17.9684 126.255 17.7875 126.255 17.6369C126.255 17.3807 126.3 17.1246 126.392 16.8684C126.484 16.5972 126.607 16.3636 126.76 16.1678C127.51 15.8664 128.207 15.4972 128.85 15.0603C129.509 14.6233 130.152 14.1487 130.78 13.6364C130.795 13.4857 130.818 13.335 130.849 13.1843C130.895 13.0337 130.918 12.8754 130.918 12.7097C130.918 12.5289 130.872 12.3556 130.78 12.1899C130.872 12.0994 130.918 11.9864 130.918 11.8508C130.918 11.7001 130.956 11.5645 131.033 11.444V11.3084C131.033 11.2481 131.025 11.1878 131.01 11.1276C131.01 11.0673 130.987 11.007 130.941 10.9468C131.048 10.3591 131.132 9.77901 131.193 9.20643C131.255 8.61878 131.285 8.01607 131.285 7.39829C131.285 7.35309 131.308 7.23255 131.354 7.03666C131.415 6.82572 131.454 6.68257 131.469 6.60723C131.53 6.26067 131.569 5.92165 131.584 5.59016C131.615 5.2436 131.653 4.89704 131.699 4.55048C131.714 4.42993 130.939 4.4224 130.985 4.22652C131.031 4.03064 131.054 3.89503 131.054 3.81969C131.054 3.71421 131.031 3.64641 130.985 3.61627C130.954 3.57107 130.924 3.50326 130.893 3.41286C130.985 3.0663 131.837 2.56906 131.837 2.2225C131.852 1.86087 131.883 1.50678 131.929 1.16022C132.189 1.05475 132.396 0.949272 132.549 0.843797C132.702 0.738322 132.924 0.685585 133.215 0.685585H133.261C133.292 0.866399 133.36 1.03968 133.468 1.20542C133.575 1.3561 133.682 1.51431 133.789 1.68006C133.912 1.83074 134.019 1.98142 134.111 2.13209C134.203 2.2677 134.249 2.40331 134.249 2.53893C134.249 2.79508 134.226 3.07383 134.18 3.37519C134.134 3.67654 134.096 3.9553 134.065 4.21145C133.988 4.8895 133.919 5.56002 133.858 6.223C133.797 6.87092 133.705 7.5339 133.583 8.21195C133.628 8.4229 133.651 8.61878 133.651 8.7996C133.651 9.07082 133.628 9.34204 133.583 9.61326C133.537 9.88448 133.514 10.1632 133.514 10.4495C133.514 10.5851 133.521 10.7283 133.537 10.879C133.567 11.0296 133.613 11.1652 133.674 11.2858C134.195 11.1502 134.662 10.8714 135.076 10.4495C135.137 10.3893 135.198 10.3139 135.259 10.2235C135.336 10.118 135.413 10.0352 135.489 9.97489C135.642 9.85434 135.803 9.74887 135.972 9.65846C136.155 9.55299 136.331 9.44751 136.5 9.34204C136.898 9.08589 137.281 8.8222 137.648 8.55098C138.031 8.26469 138.414 7.98594 138.797 7.71472C139.93 6.90105 141.025 6.05726 142.082 5.18332C143.154 4.29432 144.195 3.36012 145.206 2.38071C145.252 2.12456 145.344 1.92115 145.482 1.77047C145.62 1.61979 145.742 1.43898 145.849 1.22803C146.14 1.12255 146.393 0.964339 146.607 0.75339C146.699 0.783526 146.791 0.806127 146.883 0.821195C146.99 0.821195 147.09 0.821195 147.182 0.821195C147.289 0.821195 147.389 0.828729 147.48 0.843797C147.588 0.843797 147.679 0.866399 147.756 0.911602C147.771 1.13762 147.794 1.34103 147.825 1.52185C147.856 1.70266 147.947 1.87594 148.101 2.04169C148.101 2.07182 148.101 2.10196 148.101 2.13209C148.116 2.16223 148.124 2.19237 148.124 2.2225C148.124 2.38825 148.078 2.52386 147.986 2.62933C147.894 2.73481 147.84 2.86288 147.825 3.01356L146.63 4.18885C146.232 4.58061 145.865 5.00251 145.528 5.45455C145.405 5.46961 145.298 5.50728 145.206 5.56755C145.114 5.62782 145.022 5.69563 144.931 5.77097C144.854 5.83124 144.77 5.89151 144.678 5.95178C144.586 6.01205 144.486 6.05726 144.379 6.08739C144.104 6.44902 143.79 6.78051 143.437 7.08187C143.085 7.36816 142.725 7.64691 142.358 7.91813C141.99 8.18935 141.623 8.46811 141.255 8.75439C140.903 9.02561 140.574 9.32697 140.267 9.65846C139.946 9.80914 139.632 9.98995 139.325 10.2009C139.034 10.3968 138.797 10.6454 138.613 10.9468H138.498C138.422 10.9468 138.361 10.9694 138.315 11.0146C138.269 11.0447 138.207 11.0598 138.131 11.0598C137.304 11.768 136.446 12.4385 135.558 13.0713C134.67 13.6891 133.82 14.3672 133.008 15.1055V15.6705C133.269 15.8212 133.552 15.9643 133.858 16.0999C134.164 16.2205 134.463 16.3561 134.754 16.5068C135.06 16.6575 135.344 16.8232 135.604 17.004C135.88 17.1698 136.117 17.3732 136.316 17.6143C136.347 17.5992 136.385 17.5917 136.431 17.5917C136.569 17.5917 136.676 17.6369 136.753 17.7273C136.829 17.8026 136.959 17.8252 137.143 17.7951C137.204 18.0362 137.342 18.2094 137.557 18.3149C137.771 18.4204 137.985 18.5108 138.2 18.5861C138.384 18.767 138.552 18.9402 138.705 19.106C138.858 19.2567 139.08 19.3546 139.371 19.3998C139.402 19.4601 139.425 19.5279 139.44 19.6032C139.456 19.6786 139.486 19.7464 139.532 19.8066C139.823 19.897 140.099 20.0251 140.359 20.1909C140.635 20.3566 140.903 20.5299 141.163 20.7107C141.424 20.8764 141.684 21.0422 141.944 21.2079C142.22 21.3586 142.511 21.4792 142.817 21.5696C142.863 21.7202 142.947 21.8257 143.07 21.886C143.208 21.9463 143.315 22.0367 143.391 22.1572H143.805C143.851 22.2325 143.912 22.3079 143.989 22.3832C144.065 22.4435 144.119 22.5339 144.149 22.6544C144.272 22.6846 144.41 22.7298 144.563 22.7901C144.716 22.8353 144.854 22.8955 144.976 22.9709C145.022 23.0161 145.053 23.0688 145.068 23.1291C145.099 23.1894 145.145 23.2421 145.206 23.2873C145.298 23.3626 145.436 23.4229 145.62 23.4681C145.819 23.4982 145.987 23.551 146.125 23.6263C146.401 23.777 146.669 23.9427 146.929 24.1236C147.189 24.3194 147.465 24.5003 147.756 24.666L148.652 25.1406C148.805 25.216 148.943 25.2988 149.065 25.3893C149.203 25.4797 149.341 25.5625 149.479 25.6379C149.755 25.7584 150.046 25.8338 150.352 25.8639C150.673 25.9091 150.964 25.992 151.225 26.1125C151.301 26.1577 151.355 26.2104 151.386 26.2707C151.416 26.3461 151.47 26.4063 151.546 26.4515C151.669 26.5269 151.86 26.5796 152.121 26.6097C152.381 26.6399 152.595 26.6926 152.764 26.768C152.978 26.8584 153.185 26.9412 153.384 27.0166C153.599 27.107 153.813 27.2125 154.027 27.333C154.487 27.3631 154.939 27.4159 155.383 27.4912C155.842 27.5665 156.294 27.6419 156.738 27.7172C157.182 27.7926 157.626 27.8604 158.07 27.9206C158.53 27.9809 158.989 28.0035 159.449 27.9884C159.449 28.0186 159.464 28.0337 159.495 28.0337C159.541 28.0487 159.579 28.0563 159.609 28.0563C159.717 28.222 159.809 28.3877 159.885 28.5535C159.962 28.7192 160 28.8925 160 29.0733Z" fill="white"/>
</svg>
